<svg id="Clinic-icon-advanced-search" xmlns="http://www.w3.org/2000/svg" width="30.511" height="39.939" viewBox="0 0 30.511 39.939">
  <g id="Group_13" data-name="Group 13" transform="translate(8.473 18.002)">
    <g id="Group_12" data-name="Group 12">
      <path id="Path_3" data-name="Path 3" d="M186.777,230.772H169.642a.585.585,0,1,0,0,1.171h17.135a.585.585,0,1,0,0-1.171Z" transform="translate(-169.057 -230.772)" fill="#c1c7d0"/>
    </g>
  </g>
  <g id="Group_15" data-name="Group 15" transform="translate(3.732 18.002)">
    <g id="Group_14" data-name="Group 14">
      <path id="Path_4" data-name="Path 4" d="M110.853,230.772h-2a.585.585,0,1,0,0,1.171h2a.585.585,0,1,0,0-1.171Z" transform="translate(-108.271 -230.772)" fill="#c1c7d0"/>
    </g>
  </g>
  <g id="Group_17" data-name="Group 17" transform="translate(3.732 23.694)">
    <g id="Group_16" data-name="Group 16">
      <path id="Path_5" data-name="Path 5" d="M130.733,303.75H108.856a.585.585,0,0,0,0,1.171h21.876a.585.585,0,1,0,0-1.171Z" transform="translate(-108.271 -303.75)" fill="#c1c7d0"/>
    </g>
  </g>
  <g id="Group_19" data-name="Group 19" transform="translate(22.426 30.119)">
    <g id="Group_18" data-name="Group 18">
      <path id="Path_6" data-name="Path 6" d="M351.691,386.112h-3.182a.585.585,0,0,0,0,1.171h3.182a.585.585,0,0,0,0-1.171Z" transform="translate(-347.923 -386.112)" fill="#c1c7d0"/>
    </g>
  </g>
  <g id="Group_21" data-name="Group 21" transform="translate(3.732 30.119)">
    <g id="Group_20" data-name="Group 20">
      <path id="Path_7" data-name="Path 7" d="M124.8,386.112H108.856a.585.585,0,0,0,0,1.171H124.8a.585.585,0,0,0,0-1.171Z" transform="translate(-108.271 -386.112)" fill="#c1c7d0"/>
    </g>
  </g>
  <g id="Group_23" data-name="Group 23" transform="translate(0)">
    <g id="Group_22" data-name="Group 22">
      <path id="Path_8" data-name="Path 8" d="M90.939,8.827c0-.014,0-.028-.006-.042s0-.01,0-.015-.008-.033-.012-.049l0-.006c0-.016-.011-.032-.017-.048l0-.006c-.006-.015-.013-.029-.02-.043l0-.009c-.007-.013-.014-.025-.022-.037l-.007-.012c-.008-.011-.016-.022-.024-.033l-.01-.013c-.011-.013-.022-.026-.034-.038l0,0-8.3-8.3,0,0c-.012-.012-.025-.024-.039-.035L82.416.124,82.382.1l-.01-.006L82.332.069l-.007,0L82.28.045l0,0L82.227.025l-.006,0L82.171.011l-.014,0L82.114,0l-.058,0H62.147a1.718,1.718,0,0,0-1.716,1.716V38.223a1.718,1.718,0,0,0,1.716,1.716H89.226a1.718,1.718,0,0,0,1.716-1.716V8.886Q90.942,8.856,90.939,8.827ZM82.642,2l6.3,6.3H83.077a.436.436,0,0,1-.435-.435Zm7.13,36.224a.546.546,0,0,1-.546.545H62.147a.546.546,0,0,1-.546-.545V1.716a.546.546,0,0,1,.546-.545H81.471V7.865a1.608,1.608,0,0,0,1.606,1.606h6.694Z" transform="translate(-60.431)" fill="#c1c7d0"/>
    </g>
  </g>
  <g id="Group_25" data-name="Group 25" transform="translate(3.732 3.71)">
    <g id="Group_24" data-name="Group 24">
      <path id="Path_9" data-name="Path 9" d="M118.727,51.335h-2.982V48.353a.792.792,0,0,0-.791-.791h-2.118a.792.792,0,0,0-.791.791v2.982h-2.982a.792.792,0,0,0-.791.791v2.118a.792.792,0,0,0,.791.791h2.982v2.982a.792.792,0,0,0,.791.791h2.118a.792.792,0,0,0,.791-.791V55.035h2.982a.792.792,0,0,0,.791-.791V52.126A.792.792,0,0,0,118.727,51.335Zm-.379,2.53H115.16a.585.585,0,0,0-.585.585v3.187h-1.359V54.45a.585.585,0,0,0-.585-.585h-3.187V52.506h3.187a.585.585,0,0,0,.585-.585V48.733h1.359V51.92a.585.585,0,0,0,.585.585h3.187Z" transform="translate(-108.272 -47.562)" fill="#c1c7d0"/>
    </g>
  </g>
</svg>
