<svg xmlns="http://www.w3.org/2000/svg" width="79.262" height="78.756" viewBox="0 0 79.262 78.756">
  <g id="Dentist" transform="translate(0 -1.633)">
    <path id="Path_95" data-name="Path 95" d="M64.215,9.133A20.2,20.2,0,0,0,54.142,11.77a16.55,16.55,0,0,1-16.343,0A20.2,20.2,0,0,0,27.726,9.133,20.566,20.566,0,0,0,7.5,29.85c.1,19.409,7.1,43.676,16.559,53.136a8.79,8.79,0,0,0,6.27,2.582A8.932,8.932,0,0,0,39.112,76.6c.037-7.926,3.51-9.713,6.858-9.713s6.822,1.786,6.858,9.713a8.932,8.932,0,0,0,8.782,8.968,8.789,8.789,0,0,0,6.27-2.582c9.46-9.46,16.458-33.726,16.559-53.135A20.566,20.566,0,0,0,64.215,9.133Z" transform="translate(-6.339 -6.339)" fill="#e8e9ea"/>
    <path id="Path_96" data-name="Path 96" d="M210.6,33.03l-.106-.166a15.646,15.646,0,0,0-2.665-3.392,16.5,16.5,0,0,1-2.362.923,13.183,13.183,0,0,1,3.124,3.677l.107.168a1.127,1.127,0,0,0,1.9-1.21Zm-19.825-.167-.106.167a1.127,1.127,0,1,0,1.9,1.21l.107-.168A13.184,13.184,0,0,1,195.8,30.4a16.51,16.51,0,0,1-2.362-.923A15.66,15.66,0,0,0,190.77,32.863Z" transform="translate(-160.999 -23.529)" fill="#345aa5" opacity="0.05"/>
    <path id="Path_97" data-name="Path 97" d="M57.811,73.643c-4.079-4.834-12.917-7.291-25.408-5.108C14.539,71.657,15.482,29.9,21.095,16.673A20.749,20.749,0,0,0,7.5,36.222C7.6,55.631,14.6,79.9,24.06,89.358a8.79,8.79,0,0,0,6.27,2.582,8.932,8.932,0,0,0,8.782-8.968c.037-7.926,3.51-9.713,6.858-9.713s6.822,1.786,6.858,9.713A8.932,8.932,0,0,0,61.61,91.94a8.79,8.79,0,0,0,6.27-2.582C72.369,84.87,76.3,77.048,79.208,67.995,68.089,85.266,61.557,78.083,57.811,73.643Z" transform="translate(-6.339 -12.712)" fill="#345aa5" opacity="0.05"/>
    <g id="Group_68" data-name="Group 68" transform="translate(18.292 27.641)">
      <ellipse id="Ellipse_18" data-name="Ellipse 18" cx="5.751" cy="4.58" rx="5.751" ry="4.58" fill="#f28b74"/>
      <ellipse id="Ellipse_19" data-name="Ellipse 19" cx="5.751" cy="4.58" rx="5.751" ry="4.58" transform="translate(31.175)" fill="#f28b74"/>
    </g>
    <path id="Path_98" data-name="Path 98" d="M233.248,157.9h0a4.167,4.167,0,0,1-4.167-4.167v-3.03a1.138,1.138,0,0,1,1.138-1.138h6.059a1.138,1.138,0,0,1,1.138,1.138v3.03A4.167,4.167,0,0,1,233.248,157.9Z" transform="translate(-193.617 -125.034)" fill="#495059"/>
    <path id="Path_99" data-name="Path 99" d="M425.47,29.033h0a1.177,1.177,0,0,1-2.159,0h0a7.99,7.99,0,0,0-4.134-4.134h0a1.177,1.177,0,0,1,0-2.159h0a7.99,7.99,0,0,0,4.134-4.134h0a1.177,1.177,0,0,1,2.159,0h0A7.989,7.989,0,0,0,429.6,22.74h0a1.177,1.177,0,0,1,0,2.159h0A7.99,7.99,0,0,0,425.47,29.033Z" transform="translate(-353.687 -13.748)" fill="#d9ebfe"/>
    <path id="Path_100" data-name="Path 100" d="M380.381,275.134h0a.874.874,0,0,1-1.6,0h0a5.929,5.929,0,0,0-3.068-3.068h0a.874.874,0,0,1,0-1.6h0a5.93,5.93,0,0,0,3.068-3.068h0a.874.874,0,0,1,1.6,0h0a5.929,5.929,0,0,0,3.068,3.068h0a.874.874,0,0,1,0,1.6h0A5.93,5.93,0,0,0,380.381,275.134Z" transform="translate(-317.104 -224.177)" fill="#d9ebfe"/>
    <path id="Path_101" data-name="Path 101" d="M27.137,327.385h0a1.5,1.5,0,0,1-2.75,0h0a10.179,10.179,0,0,0-5.267-5.267h0a1.5,1.5,0,0,1,0-2.75h0a10.179,10.179,0,0,0,5.267-5.267h0a1.5,1.5,0,0,1,2.75,0h0a10.179,10.179,0,0,0,5.267,5.267h0a1.5,1.5,0,0,1,0,2.75h0A10.179,10.179,0,0,0,27.137,327.385Z" transform="translate(-15.398 -263.333)" fill="#d9ebfe"/>
    <path id="Path_102" data-name="Path 102" d="M77.459,33.913a1.162,1.162,0,0,0-1.3,1.007c-2.188,17.419-8.394,33.857-15.442,40.9a7.6,7.6,0,0,1-5.414,2.242h-.031a7.776,7.776,0,0,1-7.625-7.812c-.041-8.983-4.384-10.868-8.02-10.868s-7.978,1.886-8.02,10.868a7.777,7.777,0,0,1-7.625,7.812h-.031a7.6,7.6,0,0,1-5.414-2.242c-.43-.43-.865-.9-1.293-1.407a1.161,1.161,0,0,0-1.77,1.5c.469.552.947,1.072,1.421,1.546a9.909,9.909,0,0,0,7.055,2.922H24a10.105,10.105,0,0,0,9.938-10.124c.039-8.557,4.3-8.557,5.7-8.557s5.658,0,5.7,8.557a10.105,10.105,0,0,0,9.938,10.124h.041a9.909,9.909,0,0,0,7.055-2.922C66.134,73.7,69.675,67.524,72.6,59.62a112.965,112.965,0,0,0,5.864-24.411A1.161,1.161,0,0,0,77.459,33.913ZM25,27.974a1.161,1.161,0,0,0,1.161-1.161V24.344a1.161,1.161,0,0,0-2.322,0v2.469A1.161,1.161,0,0,0,25,27.974ZM60.611,51.421a2.035,2.035,0,0,0,3.731,0,4.754,4.754,0,0,1,2.467-2.467,2.035,2.035,0,0,0,0-3.731,4.754,4.754,0,0,1-2.467-2.467,2.035,2.035,0,0,0-3.731,0,4.752,4.752,0,0,1-2.467,2.467,2.035,2.035,0,0,0,0,3.731A4.752,4.752,0,0,1,60.611,51.421Zm1.865-7.2a7.06,7.06,0,0,0,2.864,2.864,7.059,7.059,0,0,0-2.864,2.864,7.058,7.058,0,0,0-2.864-2.864A7.058,7.058,0,0,0,62.476,44.224Zm13.736-31.93c.056-.026.112-.054.169-.078a2.338,2.338,0,0,0,0-4.288,6.808,6.808,0,0,1-3.533-3.534,2.339,2.339,0,0,0-4.288,0c-.024.055-.05.109-.075.163A20.969,20.969,0,0,0,57.879,1.633a21.463,21.463,0,0,0-10.65,2.788,15.452,15.452,0,0,1-15.2,0A21.45,21.45,0,0,0,21.45,1.633h-.067A21.121,21.121,0,0,0,6.377,7.979,21.771,21.771,0,0,0,0,23.517,111.729,111.729,0,0,0,4.809,54.1a9.05,9.05,0,0,1-1.551.867,2.661,2.661,0,0,0,0,4.88,8.99,8.99,0,0,1,4.666,4.666,2.631,2.631,0,0,0,1.358,1.373,57.066,57.066,0,0,0,2.924,5.456,1.161,1.161,0,1,0,1.979-1.214c-.824-1.343-1.632-2.825-2.41-4.415a2.649,2.649,0,0,0,1.029-1.2A8.99,8.99,0,0,1,17.47,59.85a2.661,2.661,0,0,0,0-4.88A8.989,8.989,0,0,1,12.8,50.3a2.661,2.661,0,0,0-4.879,0A9.04,9.04,0,0,1,6.7,52.329,109.091,109.091,0,0,1,2.322,23.5a19.463,19.463,0,0,1,5.7-13.89A18.815,18.815,0,0,1,21.39,3.955h.06A19.127,19.127,0,0,1,30.886,6.44a17.784,17.784,0,0,0,17.49,0,19.111,19.111,0,0,1,9.5-2.485,18.648,18.648,0,0,1,9.284,2.513,6.822,6.822,0,0,1-2.13,1.459,2.338,2.338,0,0,0,0,4.288,6.807,6.807,0,0,1,3.534,3.533,2.339,2.339,0,0,0,4.288,0A6.823,6.823,0,0,1,74.3,13.625a19.426,19.426,0,0,1,2.639,9.88c-.01,1.961-.093,4.012-.246,6.1a1.161,1.161,0,0,0,1.073,1.243c.029,0,.058,0,.086,0a1.161,1.161,0,0,0,1.157-1.076c.157-2.137.242-4.242.252-6.255A21.745,21.745,0,0,0,76.212,12.294ZM10.053,51.231a.339.339,0,0,1,.622,0A11.305,11.305,0,0,0,16.543,57.1a.339.339,0,0,1,0,.622,11.306,11.306,0,0,0-5.868,5.868.319.319,0,0,1-.311.2l-.035,0-.056-.009a.313.313,0,0,1-.22-.193A11.3,11.3,0,0,0,4.185,57.72a.339.339,0,0,1,0-.622A11.3,11.3,0,0,0,10.053,51.231Zm65.4-41.144a9.122,9.122,0,0,0-4.735,4.735l1.064.464-1.065-.456a.026.026,0,0,1-.029-.008,9.112,9.112,0,0,0-4.743-4.735.026.026,0,0,1,.008-.029,9.107,9.107,0,0,0,3.9-3.223l.005-.007,0,0a9.206,9.206,0,0,0,.831-1.51.026.026,0,0,1,.029.008,9.112,9.112,0,0,0,4.743,4.736A.026.026,0,0,1,75.453,10.087ZM55.419,26.813V24.344a1.161,1.161,0,0,0-2.322,0v2.469a1.161,1.161,0,1,0,2.322,0ZM39.631,34.03A5.335,5.335,0,0,0,44.959,28.7v-3.03a2.3,2.3,0,0,0-2.3-2.3H36.6a2.3,2.3,0,0,0-2.3,2.3V28.7A5.334,5.334,0,0,0,39.631,34.03ZM36.625,25.7h6.012V28.7a3.006,3.006,0,1,1-6.012,0V25.7Z" transform="translate(0 0)"/>
  </g>
</svg>
