<svg xmlns="http://www.w3.org/2000/svg" width="70.046" height="80.167" viewBox="0 0 70.046 80.167">
  <g id="Dermatology" transform="translate(-32.32)">
    <g id="Group_63" data-name="Group 63" transform="translate(33.495 1.174)">
      <path id="Path_42" data-name="Path 42" d="M156.753,74.2H132.911A21.408,21.408,0,0,1,111.5,52.8v-26.6A18.7,18.7,0,0,1,130.2,7.5h7.854a18.7,18.7,0,0,1,18.7,18.7Z" transform="translate(-100.279 -7.497)" fill="#d9ebfe"/>
      <path id="Path_44" data-name="Path 44" d="M107.519,422.392h-67.7l1.618-6.728a11.109,11.109,0,0,1,10.8-8.515H95.1a11.109,11.109,0,0,1,10.8,8.515Z" transform="translate(-39.822 -344.574)" fill="#345aa5"/>
      <path id="Path_46" data-name="Path 46" d="M195.657,347.439v-7.973H179.685v7.973a2.625,2.625,0,0,1-2.625,2.625h-2.074v.007a8.913,8.913,0,0,0,5.673,8.3l3.747,1.462a8.915,8.915,0,0,0,6.459.009l3.8-1.469a8.914,8.914,0,0,0,5.7-8.313h-2.074A2.625,2.625,0,0,1,195.657,347.439Z" transform="translate(-153.822 -287.487)" fill="#ffcebf"/>
      <path id="Path_47" data-name="Path 47" d="M257.044,350.064a2.625,2.625,0,0,1-2.625-2.625v-7.973h-3.5v7.973a2.625,2.625,0,0,0,2.625,2.625h2.074a8.914,8.914,0,0,1-5.7,8.313l-3.8,1.469a8.9,8.9,0,0,1-1.468.426,8.912,8.912,0,0,0,4.969-.426l3.8-1.469a8.914,8.914,0,0,0,5.7-8.313Z" transform="translate(-212.585 -287.487)" fill="#ffb09e"/>
      <path id="Path_48" data-name="Path 48" d="M176.512,113.419v12.675a16.646,16.646,0,0,1-16.646,16.646H157a16.646,16.646,0,0,1-16.646-16.646V113.419l10.229-1.463a7.047,7.047,0,0,0,5.451-4.134l2.4-5.44,2.378,5.427a7.048,7.048,0,0,0,5.459,4.149Z" transform="translate(-124.615 -87.525)" fill="#ffcebf"/>
      <path id="Path_49" data-name="Path 49" d="M254.19,111.957a7.047,7.047,0,0,1-5.459-4.149l-2.378-5.427-1.756,3.984.632,1.442a7.048,7.048,0,0,0,5.459,4.149l10.241,1.462v12.675A16.646,16.646,0,0,1,244.6,142.737c.106,0,.212,0,.319,0h2.863a16.646,16.646,0,0,0,16.646-16.646V113.419Z" transform="translate(-212.534 -87.525)" fill="#ffb09e"/>
      <path id="Path_50" data-name="Path 50" d="M245.228,217.2a2,2,0,0,1-2-2v-4.725a2,2,0,0,1,4,0V215.2A2,2,0,0,1,245.228,217.2Z" transform="translate(-211.379 -177.009)" fill="#ffa78f"/>
      <path id="Path_51" data-name="Path 51" d="M371.27,184.107h1.47a5.368,5.368,0,0,0,5.368-5.368v-.414a5.368,5.368,0,0,0-5.368-5.368h-1.47Z" transform="translate(-319.373 -147.05)" fill="#ffcebf"/>
      <path id="Path_52" data-name="Path 52" d="M372.74,172.957h-1.47v.4a5.369,5.369,0,0,1,3.336,4.969v.414a5.369,5.369,0,0,1-3.336,4.969v.4h1.47a5.368,5.368,0,0,0,5.368-5.368v-.414A5.368,5.368,0,0,0,372.74,172.957Z" transform="translate(-319.373 -147.05)" fill="#ffb09e"/>
      <path id="Path_53" data-name="Path 53" d="M103.521,184.023h-1.47a5.368,5.368,0,0,1-5.368-5.368v-.414a5.368,5.368,0,0,1,5.368-5.368h1.47Z" transform="translate(-87.78 -146.979)" fill="#ffcebf"/>
      <path id="Path_54" data-name="Path 54" d="M120.022,172.873a5.351,5.351,0,0,0-2.031.4v10.352a5.351,5.351,0,0,0,2.031.4h1.47v-11.15h-1.47Z" transform="translate(-105.752 -146.979)" fill="#ffb09e"/>
    </g>
    <g id="Group_64" data-name="Group 64" transform="translate(32.32 0)">
      <path id="Path_55" data-name="Path 55" d="M102.334,78.718l-1.618-6.727a12.24,12.24,0,0,0-9.574-9.184V43.087a1.174,1.174,0,0,0-2.349,0v19.49H77.955a1.452,1.452,0,0,1-1.45-1.45V55.784A17.911,17.911,0,0,0,86.566,39.405,6.624,6.624,0,0,0,93.4,32.449a6.527,6.527,0,0,0-2.262-4.941V19.871A19.894,19.894,0,0,0,71.271,0H63.416A19.894,19.894,0,0,0,43.544,19.871v7.572a6.771,6.771,0,0,0-2.321,5.406,6.529,6.529,0,0,0,2.321,4.992v8.63a22.683,22.683,0,0,0,6.756,16.1H45.915A12.247,12.247,0,0,0,33.971,71.99l-1.618,6.728a1.174,1.174,0,1,0,2.284.549l1.618-6.728a9.9,9.9,0,0,1,9.661-7.615h7.635A10.021,10.021,0,0,0,59.9,73.155l3.748,1.463a10.106,10.106,0,0,0,2.517.623v3.752a1.174,1.174,0,1,0,2.349,0V75.235a10.1,10.1,0,0,0,2.443-.608l.9-.347a1.174,1.174,0,1,0-.848-2.191l-.9.347a7.732,7.732,0,0,1-2.762.523h-.023a7.74,7.74,0,0,1-2.822-.53l-3.747-1.462a7.687,7.687,0,0,1-4.838-6.043h.812a3.8,3.8,0,0,0,3.8-3.8V56.742a17.76,17.76,0,0,0,5.352.821h2.863a17.753,17.753,0,0,0,5.41-.841v4.4a3.8,3.8,0,0,0,3.8,3.8h.808a7.782,7.782,0,0,1-3.006,5.018,1.174,1.174,0,1,0,1.409,1.879,10.144,10.144,0,0,0,3.967-6.9h7.638a9.9,9.9,0,0,1,9.661,7.615l1.618,6.728a1.174,1.174,0,1,0,2.283-.549ZM91.056,32.449a4.291,4.291,0,0,1-4.489,4.608v-8.8A4.269,4.269,0,0,1,91.056,32.449Zm-47.483.4a4.333,4.333,0,0,1,4.489-4.608v8.8A4.269,4.269,0,0,1,43.572,32.85Zm14.61,28.276a1.452,1.452,0,0,1-1.45,1.45H53.878a20.319,20.319,0,0,1-7.985-16.1V39.118a7.628,7.628,0,0,0,2.169.275A17.913,17.913,0,0,0,58.182,55.813Zm10.563-5.911H65.882A15.49,15.49,0,0,1,50.41,39.743V27.068a1.174,1.174,0,0,0-1.174-1.174h-1.47a6.515,6.515,0,0,0-1.873.275v-6.3A17.542,17.542,0,0,1,63.416,2.349h7.855A17.543,17.543,0,0,1,88.794,19.871v6.035H85.558L75.317,24.443a5.837,5.837,0,0,1-4.549-3.457l-2.279-5.2V6.753a1.174,1.174,0,0,0-2.349,0v9.03L63.842,21A5.838,5.838,0,0,1,59.3,24.443l-4.688.67a1.174,1.174,0,1,0,.333,2.325l4.688-.67a8.174,8.174,0,0,0,6.36-4.823l1.32-2.995,1.305,2.979a8.171,8.171,0,0,0,6.369,4.84l9.233,1.318V39.743A15.489,15.489,0,0,1,68.745,55.215Z" transform="translate(-32.32 0)"/>
      <path id="Path_56" data-name="Path 56" d="M238.9,200.978a3.178,3.178,0,0,0-3.174,3.174v4.725a3.174,3.174,0,0,0,6.348,0v-4.725A3.178,3.178,0,0,0,238.9,200.978Zm.825,7.9a.825.825,0,1,1-1.651,0v-4.725a.825.825,0,0,1,1.651,0Z" transform="translate(-203.879 -169.509)"/>
      <path id="Path_57" data-name="Path 57" d="M300.662,210.523a3.774,3.774,0,0,0,2.686,1.113,3.813,3.813,0,0,0,3.29-1.9,1.174,1.174,0,0,0-2.033-1.177,1.458,1.458,0,0,1-1.257.726,1.448,1.448,0,0,1-1.254-.723,1.174,1.174,0,1,0-2.036,1.17A3.759,3.759,0,0,0,300.662,210.523Z" transform="translate(-258.005 -175.411)"/>
      <path id="Path_58" data-name="Path 58" d="M170.756,211.636a3.813,3.813,0,0,0,3.29-1.9,1.174,1.174,0,1,0-2.033-1.177,1.452,1.452,0,0,1-2.284.3,1.433,1.433,0,0,1-.229-.3,1.174,1.174,0,0,0-2.036,1.17,3.8,3.8,0,0,0,3.292,1.9Z" transform="translate(-146.172 -175.411)"/>
      <path id="Path_59" data-name="Path 59" d="M241.228,291.168h-3.68a1.174,1.174,0,1,0,0,2.349h3.68a1.174,1.174,0,1,0,0-2.349Z" transform="translate(-204.423 -245.578)"/>
      <path id="Path_60" data-name="Path 60" d="M329.217,260.986a1.205,1.205,0,1,0-1.205,1.205A1.205,1.205,0,0,0,329.217,260.986Z" transform="translate(-280.696 -219.105)"/>
      <circle id="Ellipse_3" data-name="Ellipse 3" cx="1.205" cy="1.205" r="1.205" transform="translate(43.444 46.919) rotate(-67.486)"/>
      <circle id="Ellipse_4" data-name="Ellipse 4" cx="1.205" cy="1.205" r="1.205" transform="translate(40.63 43.276) rotate(-67.486)"/>
      <path id="Path_61" data-name="Path 61" d="M170.628,259.781a1.205,1.205,0,1,0,1.205,1.205A1.205,1.205,0,0,0,170.628,259.781Z" transform="translate(-147.956 -219.105)"/>
      <circle id="Ellipse_5" data-name="Ellipse 5" cx="1.205" cy="1.205" r="1.205" transform="translate(23.784 45.053)"/>
      <circle id="Ellipse_6" data-name="Ellipse 6" cx="1.205" cy="1.205" r="1.205" transform="translate(26.597 41.411)"/>
    </g>
  </g>
</svg>
