<svg id="doctor-icon-advanced-search" xmlns="http://www.w3.org/2000/svg" width="35.422" height="39.939" viewBox="0 0 35.422 39.939">
  <g id="Group_10" data-name="Group 10" transform="translate(0)">
    <path id="Path_1" data-name="Path 1" d="M64.349,37.894,62.582,27.55a2.944,2.944,0,0,0-2.063-2.336l-4.766-1.438a5.315,5.315,0,0,0-3.688-4.616c.151-.167.291-.334.419-.5a9.25,9.25,0,0,0,1.894-4.113h.368a1.736,1.736,0,0,0,1.734-1.734v-.889a1.746,1.746,0,0,0-.9-1.517V8.273a.585.585,0,1,0-1.17,0v2.4a3.6,3.6,0,0,0-.778.225.588.588,0,0,0-.082.037c-.063.029-.126.059-.188.093V6.314A2.364,2.364,0,0,0,51,3.952H49.388a2.426,2.426,0,0,0-1.532.546l-.158.129a1.634,1.634,0,0,1-2.068,0L45.471,4.5a2.427,2.427,0,0,0-1.532-.546H42.324a2.364,2.364,0,0,0-2.361,2.361v4.713c-.063-.034-.126-.064-.188-.093a.587.587,0,0,0-.082-.037,3.606,3.606,0,0,0-.778-.225V4.6A3.439,3.439,0,0,1,42.349,1.17h8.628A3.438,3.438,0,0,1,54.411,4.6v.919a.585.585,0,1,0,1.17,0V4.6a4.61,4.61,0,0,0-4.6-4.6H42.349a4.61,4.61,0,0,0-4.6,4.6V10.41a1.746,1.746,0,0,0-.9,1.517v.889A1.736,1.736,0,0,0,38.58,14.55h.368a9.249,9.249,0,0,0,1.894,4.113c.128.163.268.33.419.5a5.335,5.335,0,0,0-3.688,4.616l-4.766,1.438a2.944,2.944,0,0,0-2.063,2.336l-.717,4.2a.585.585,0,0,0,1.153.2l.717-4.2a1.781,1.781,0,0,1,1.248-1.413L37.553,25v1.157A2.926,2.926,0,0,0,35.329,28a2.966,2.966,0,0,0-.174.794l-.426,5.468a1.487,1.487,0,0,0,1.482,1.6h.729a.585.585,0,1,0,0-1.17h-.729a.317.317,0,0,1-.316-.341l.426-5.468a1.8,1.8,0,0,1,.105-.481,1.769,1.769,0,0,1,1.656-1.127h.11a1.752,1.752,0,0,1,1.633,1.047,1.794,1.794,0,0,1,.137.562l.426,5.468a.317.317,0,0,1-.316.341h-.729a.585.585,0,1,0,0,1.17h.729a1.487,1.487,0,0,0,1.482-1.6L41.128,28.8a2.962,2.962,0,0,0-.226-.927,2.9,2.9,0,0,0-2.179-1.713V24.651l2.011-.607c.183.385.545,1.218,1.263,3.013.724,1.811,1.623,4.132,2.486,6.388a.594.594,0,0,0,.021.056c.576,1.506,1.134,2.982,1.612,4.255a.585.585,0,0,0,1.1,0c.478-1.273,1.036-2.748,1.612-4.255a.583.583,0,0,0,.021-.056c.862-2.255,1.761-4.575,2.484-6.385s1.082-2.63,1.265-3.016l2.011.607v3.454a3.026,3.026,0,1,0,1.17,0V25l4.408,1.33a1.781,1.781,0,0,1,1.248,1.413L63.2,38.091a.581.581,0,0,1-.572.678H30.7a.581.581,0,0,1-.572-.678l.583-3.414a.585.585,0,0,0-1.153-.2l-.583,3.414A1.75,1.75,0,0,0,30.7,39.939H62.624a1.75,1.75,0,0,0,1.725-2.045Zm-9.931-26.03a2.51,2.51,0,0,1,.565-.076.6.6,0,0,0,.286-.068.554.554,0,0,1,.041.207v.889a.565.565,0,0,1-.564.564h-.327V11.864ZM38.908,13.38H38.58a.565.565,0,0,1-.564-.564v-.889a.555.555,0,0,1,.041-.207.6.6,0,0,0,.286.068,2.607,2.607,0,0,1,.565.077Zm1.17.656V12.5a.821.821,0,0,0,1.055-.787v-5.4a1.193,1.193,0,0,1,1.192-1.192h1.614a1.254,1.254,0,0,1,.791.282l.158.129a2.8,2.8,0,0,0,3.549,0L48.6,5.4a1.254,1.254,0,0,1,.791-.282H51a1.193,1.193,0,0,1,1.192,1.192v5.4a.821.821,0,0,0,1.055.787v1.536a7.564,7.564,0,0,1-1.684,3.9,7.711,7.711,0,0,1-1.4,1.389.586.586,0,0,0-.052.039,5.7,5.7,0,0,1-6.895,0,.593.593,0,0,0-.052-.039,7.717,7.717,0,0,1-1.4-1.389A7.565,7.565,0,0,1,40.077,14.036Zm10.417,9.449-3.832,2.864-3.832-2.864a2.774,2.774,0,0,0,.593-1.656v-.943a6.868,6.868,0,0,0,6.478,0v.943A2.774,2.774,0,0,0,50.495,23.485Zm-8.639-.653a1.6,1.6,0,0,0-.986-.05l-.042.011-2.021.61a4.155,4.155,0,0,1,3.448-3.277v1.7A1.547,1.547,0,0,1,41.855,22.832Zm1.587,4.7,0-.008-.088-.222-.016-.04-.084-.212-.006-.015L43,26.4l-.018-.044-.068-.17-.025-.061-.065-.161-.019-.047-.114-.28-.03-.074-.043-.1-.046-.111-.017-.042-.013-.032q-.1-.246-.193-.464v0l-.095-.225-.047-.11,3.3,2.463-1.377.585-.007,0-.575.244Zm1.4,3.581-.349-.9q-.274-.707-.523-1.346l.218-.093.892,1.037Zm1.836,4.754a.583.583,0,0,0-.06-.1c-.264-.7-.6-1.582-.971-2.555l.546-2.99h.947l.546,2.99C47.294,34.228,46.944,35.149,46.674,35.862Zm.681-6.812H45.97l-.656-.762,1.348-.573,1.348.573Zm1.481,1.156-.349.9-.238-1.3.892-1.037.218.093Q49.11,29.5,48.836,30.206Zm2.24-5.62-.09.213-.012.029-.093.224-.006.016-.085.205-.016.038-.02.048-.039.095-.049.118-.016.039-.125.308-.02.05-.064.159-.025.063-.068.168-.019.048q-.119.3-.247.618l-.008.021-.084.211-.016.04-.088.223,0,0-.1.247-.575-.244-.006,0-1.378-.585,3.3-2.463ZM52.5,22.794h0a1.6,1.6,0,0,0-1.026.039,1.546,1.546,0,0,1-.4-1v-1.7a4.123,4.123,0,0,1,3.45,3.279Zm4.539,8.281a1.857,1.857,0,1,1-1.857-1.857A1.859,1.859,0,0,1,57.038,31.076Z" transform="translate(-28.952)" fill="#345aa5"/>
  </g>
</svg>
