<svg xmlns="http://www.w3.org/2000/svg" xmlns:xlink="http://www.w3.org/1999/xlink" width="90.546" height="105.522" viewBox="0 0 90.546 105.522">
  <defs>
    <clipPath id="clip-path">
      <rect id="Rectangle_5311" data-name="Rectangle 5311" width="9.17" height="12.431" fill="none"/>
    </clipPath>
    <clipPath id="clip-path-2">
      <rect id="Rectangle_5312" data-name="Rectangle 5312" width="16.525" height="21.184" fill="none"/>
    </clipPath>
    <clipPath id="clip-path-5">
      <rect id="Rectangle_5315" data-name="Rectangle 5315" width="43.175" height="99.656" fill="none"/>
    </clipPath>
    <clipPath id="clip-path-7">
      <rect id="Rectangle_5317" data-name="Rectangle 5317" width="73.317" height="15.311" fill="none"/>
    </clipPath>
    <clipPath id="clip-path-8">
      <rect id="Rectangle_5318" data-name="Rectangle 5318" width="47.422" height="28.979" fill="none"/>
    </clipPath>
    <clipPath id="clip-path-9">
      <rect id="Rectangle_5319" data-name="Rectangle 5319" width="1.376" height="1.376" fill="none"/>
    </clipPath>
    <clipPath id="clip-path-10">
      <rect id="Rectangle_5320" data-name="Rectangle 5320" width="0.652" height="0.649" fill="none"/>
    </clipPath>
    <clipPath id="clip-path-13">
      <rect id="Rectangle_5326" data-name="Rectangle 5326" width="16.709" height="6.922" fill="none"/>
    </clipPath>
  </defs>
  <g id="EMA" transform="translate(0.011 -0.04)">
    <g id="Layer_1" data-name="Layer 1" transform="translate(-0.011 0.04)">
      <g id="Group_10375" data-name="Group 10375" transform="translate(0)">
        <g id="Group_10374" data-name="Group 10374">
          <path id="Path_2128" data-name="Path 2128" d="M470.019,468.974c-.409,3.687-2.927,6.433-5.621,6.134s-4.551-3.529-4.141-7.217,2.925-6.433,5.621-6.134,4.548,3.53,4.141,7.217" transform="translate(-379.567 -406.015)" fill="#0f172b"/>
          <path id="Path_2129" data-name="Path 2129" d="M464.669,475.045a3.9,3.9,0,0,1-.4-.021c-2.713-.3-4.586-3.558-4.177-7.261a8.122,8.122,0,0,1,1.965-4.584,4.352,4.352,0,0,1,3.7-1.583c2.713.3,4.586,3.555,4.174,7.259-.391,3.53-2.7,6.191-5.259,6.191m.675-13.4a4.425,4.425,0,0,0-3.235,1.584,8.035,8.035,0,0,0-1.943,4.539c-.4,3.659,1.438,6.878,4.108,7.174s5.177-2.44,5.577-6.1h0c.407-3.659-1.435-6.878-4.106-7.174a3.866,3.866,0,0,0-.4-.021" transform="translate(-379.439 -405.891)" fill="#0f172b"/>
          <g id="Group_10349" data-name="Group 10349" transform="translate(81.338 56.686)" opacity="0.5">
            <g id="Group_10348" data-name="Group 10348" clip-path="url(#clip-path)">
              <path id="Path_2130" data-name="Path 2130" d="M470.256,465.817a8.3,8.3,0,0,1,.647,4.381c-.409,3.687-2.927,6.435-5.621,6.137a3.874,3.874,0,0,1-2.1-.941,4.506,4.506,0,0,0,3.492,2.824c2.694.3,5.212-2.447,5.621-6.134a7.256,7.256,0,0,0-2.042-6.273" transform="translate(-463.185 -465.817)" fill="#383340"/>
            </g>
          </g>
          <path id="Path_2131" data-name="Path 2131" d="M423.263,446.592a4.372,4.372,0,0,0,3.864,4.826l6.08.673c2.4.266,4.066-1.967,4.826-3.861s2.035-12.417,1.661-14.989-1.464-4.558-3.864-4.824l-6.08-.675a4.372,4.372,0,0,0-4.826,3.864Z" transform="translate(-351.301 -380.001)" fill="#f7f9fa"/>
          <path id="Path_2132" data-name="Path 2132" d="M433.21,451.846a3.256,3.256,0,0,1-.4-.023l-6.082-.673a4.5,4.5,0,0,1-3.967-4.955l1.663-14.986a4.471,4.471,0,0,1,4.96-3.965l6.082.673c2.191.235,3.529,1.9,3.965,4.925.379,2.6-.9,13.13-1.668,15.059-.784,1.958-2.374,3.958-4.548,3.958m-10.33-5.647.115.012a4.259,4.259,0,0,0,3.765,4.706l6.08.675a3.325,3.325,0,0,0,.374.021c2.059,0,3.577-1.927,4.332-3.812s2.028-12.348,1.647-14.925c-.424-2.908-1.689-4.5-3.765-4.727l-6.08-.673a4.252,4.252,0,0,0-4.706,3.765L423,446.222Z" transform="translate(-350.919 -379.616)" fill="#0f172b"/>
          <g id="Group_10351" data-name="Group 10351" transform="translate(71.936 50.93)" opacity="0.19">
            <g id="Group_10350" data-name="Group 10350" clip-path="url(#clip-path-2)">
              <path id="Path_2133" data-name="Path 2133" d="M438.04,458.679c-.762,1.894-2.426,4.127-4.824,3.861l-6.082-.673a4.372,4.372,0,0,1-3.861-4.826l.153-1.381a4.374,4.374,0,0,0,3.026,1.734l6.082.673c2.407.268,4.071-1.967,4.824-3.861.621-1.541,1.584-8.8,1.713-12.826a8.891,8.891,0,0,1,.631,2.311c.376,2.567-.9,13.092-1.661,14.989" transform="translate(-423.244 -441.38)" fill="#8bb5e1"/>
            </g>
          </g>
          <path id="Path_2134" data-name="Path 2134" d="M117.746,468.974c.409,3.687,2.925,6.433,5.621,6.134s4.551-3.529,4.141-7.217-2.922-6.433-5.621-6.134-4.551,3.53-4.141,7.217" transform="translate(-117.649 -406.015)" fill="#0f172b"/>
          <path id="Path_2135" data-name="Path 2135" d="M122.832,475.044a4.509,4.509,0,0,1-3.294-1.607,8.1,8.1,0,0,1-1.962-4.584c-.412-3.7,1.461-6.96,4.174-7.259a4.372,4.372,0,0,1,3.7,1.584,8.1,8.1,0,0,1,1.962,4.584c.412,3.7-1.461,6.96-4.174,7.261a3.988,3.988,0,0,1-.409.021m-5.177-6.2a8.043,8.043,0,0,0,1.944,4.541,4.313,4.313,0,0,0,3.635,1.56c2.671-.3,4.513-3.515,4.106-7.174a8.018,8.018,0,0,0-1.941-4.539,4.314,4.314,0,0,0-3.635-1.562c-2.671.3-4.513,3.515-4.108,7.174" transform="translate(-117.519 -405.89)" fill="#0f172b"/>
          <g id="Group_10353" data-name="Group 10353" transform="translate(0.04 56.686)" opacity="0.5">
            <g id="Group_10352" data-name="Group 10352" clip-path="url(#clip-path)">
              <path id="Path_2136" data-name="Path 2136" d="M119.79,465.817a8.294,8.294,0,0,0-.652,4.381c.409,3.687,2.927,6.435,5.621,6.137a3.874,3.874,0,0,0,2.1-.941,4.506,4.506,0,0,1-3.492,2.824c-2.7.3-5.212-2.447-5.621-6.134a7.255,7.255,0,0,1,2.042-6.273" transform="translate(-117.691 -465.817)" fill="#383340"/>
            </g>
          </g>
          <path id="Path_2137" data-name="Path 2137" d="M142.892,446.592a4.372,4.372,0,0,1-3.864,4.826l-6.08.673c-2.4.266-4.066-1.967-4.826-3.861s-2.035-12.417-1.661-14.989,1.464-4.558,3.861-4.824l6.082-.675a4.372,4.372,0,0,1,4.826,3.864Z" transform="translate(-124.306 -380.001)" fill="#f7f9fa"/>
          <path id="Path_2138" data-name="Path 2138" d="M132.181,451.816c-2.172,0-3.765-2-4.546-3.958-.769-1.918-2.047-12.447-1.668-15.059.44-3.024,1.774-4.68,3.965-4.925l6.08-.673a4.492,4.492,0,0,1,4.955,3.965l1.661,15a4.494,4.494,0,0,1-3.965,4.955l-6.082.675a3.832,3.832,0,0,1-.4.021m4.33-24.4a4.009,4.009,0,0,0-.471.028l-6.08.673c-2.073.235-3.337,1.819-3.765,4.727-.376,2.588.892,13.024,1.647,14.925.8,2,2.454,4.04,4.706,3.791l6.08-.664a4.261,4.261,0,0,0,3.765-4.706L140.746,431.2a4.261,4.261,0,0,0-4.235-3.786" transform="translate(-123.927 -379.586)" fill="#0f172b"/>
          <g id="Group_10355" data-name="Group 10355" transform="translate(2.087 50.93)" opacity="0.19">
            <g id="Group_10354" data-name="Group 10354" clip-path="url(#clip-path-2)">
              <path id="Path_2139" data-name="Path 2139" d="M128.121,458.679c.765,1.894,2.428,4.127,4.826,3.861l6.082-.673a4.372,4.372,0,0,0,3.861-4.826l-.153-1.381a4.384,4.384,0,0,1-3.024,1.734l-6.082.673c-2.407.268-4.071-1.967-4.826-3.861-.619-1.541-1.581-8.8-1.711-12.826a8.982,8.982,0,0,0-.633,2.311c-.374,2.567.906,13.092,1.661,14.989" transform="translate(-126.394 -441.38)" fill="#8bb5e1"/>
            </g>
          </g>
          <path id="Path_2140" data-name="Path 2140" d="M215.612,264.305v-1.064A37.973,37.973,0,0,0,177.75,225.38h-7.918a38.169,38.169,0,0,0-38.062,38.062v1.063a18.838,18.838,0,0,0,.193,2.7v0a18.878,18.878,0,0,0,.941,3.765c1.626,6.774,5.722,21.426,6.511,33.464.358,5.457,4.057,10.268,8.365,14.257a54.381,54.381,0,0,0,13.883,8.219s7.666,3.765,11.017,3.765,13.266-3.765,13.266-3.765a69.31,69.31,0,0,0,9.883-5.492c5.014-4.44,11.626-10.219,12.068-16.984,1.066-16.236,7.511-37.2,7.511-37.2a19.376,19.376,0,0,0,.224-2.927" transform="translate(-128.417 -225.274)" fill="#f7f9fa"/>
          <path id="Path_2141" data-name="Path 2141" d="M172.308,330.442c-3.322,0-10.683-3.586-11.059-3.765a55.1,55.1,0,0,1-13.9-8.235c-5.351-4.941-8.1-9.647-8.407-14.339-.664-10.141-3.624-21.925-5.584-29.721-.358-1.426-.668-2.657-.922-3.718a19.1,19.1,0,0,1-1.132-6.494v-1.064a37.677,37.677,0,0,1,3.012-14.824,38.554,38.554,0,0,1,20.342-20.342,37.675,37.675,0,0,1,14.824-3.012h7.918a37.509,37.509,0,0,1,14.746,3,38.354,38.354,0,0,1,20.236,20.236,37.509,37.509,0,0,1,3,14.746v1.064a19.542,19.542,0,0,1-.223,2.944v.018c-.063.209-6.452,21.135-7.5,37.177-.2,3-1.593,6.047-4.268,9.334a67.2,67.2,0,0,1-7.671,7.577l-.184.162a71.05,71.05,0,0,1-9.882,5.5c-.409.155-9.977,3.765-13.313,3.765m-2.854-105.3a37.471,37.471,0,0,0-14.732,2.993,38.321,38.321,0,0,0-20.217,20.219A37.48,37.48,0,0,0,131.53,263.1v1.064a18.969,18.969,0,0,0,1.111,6.433h0c.254,1.059.565,2.292.922,3.72,1.962,7.8,4.925,19.6,5.593,29.761.308,4.638,3.038,9.278,8.337,14.181a54.716,54.716,0,0,0,13.838,8.2h.012c.075.038,7.68,3.765,10.965,3.765s13.127-3.72,13.226-3.765a69.361,69.361,0,0,0,9.843-5.475l.167-.146a67.117,67.117,0,0,0,7.643-7.551c2.645-3.247,4.024-6.257,4.217-9.2,1.045-15.941,7.353-36.707,7.511-37.215a19.259,19.259,0,0,0,.221-2.9V262.9a37.266,37.266,0,0,0-2.979-14.657,38.1,38.1,0,0,0-20.111-20.111,37.267,37.267,0,0,0-14.654-2.979Z" transform="translate(-128.057 -224.93)" fill="#0f172b"/>
          <g id="Group_10357" data-name="Group 10357" transform="translate(43.949 0.106)" opacity="0.19">
            <g id="Group_10356" data-name="Group 10356" clip-path="url(#clip-path-5)">
              <path id="Path_2142" data-name="Path 2142" d="M347.289,267.2h0a19.186,19.186,0,0,0,.193-2.692v-1.064A38.169,38.169,0,0,0,309.42,225.38H304.3c20.942,0,37.467,12.431,37.467,33.365l.6,5.76a18.83,18.83,0,0,1-.193,2.7v0a18.878,18.878,0,0,1-.941,3.765c-1.626,6.774-6,21.426-6.8,33.464-.577,8.8-7.224,15.92-13.2,20.605a53.261,53.261,0,0,0,6.788-3.814c5.235-4.537,11.348-10.184,11.685-15.878.833-14.118,5.007-27.6,6.633-34.377a18.886,18.886,0,0,0,.941-3.765" transform="translate(-304.3 -225.38)" fill="#8bb5e1"/>
            </g>
          </g>
          <g id="Group_10359" data-name="Group 10359" transform="translate(3.386 0.106)" opacity="0.19">
            <g id="Group_10358" data-name="Group 10358" clip-path="url(#clip-path-5)">
              <path id="Path_2143" data-name="Path 2143" d="M139.665,305.359c-.833-14.118-5.01-27.6-6.633-34.377a19.011,19.011,0,0,1-.941-3.765h0a19.183,19.183,0,0,1-.191-2.692v-1.064A38.169,38.169,0,0,1,169.962,225.4h5.115c-20.942,0-37.464,12.431-37.464,33.365l-.6,5.76a19.181,19.181,0,0,0,.191,2.692h0a19,19,0,0,0,.941,3.765c1.626,6.774,6.007,21.426,6.8,33.464.576,8.8,7.226,15.92,13.2,20.605a53.265,53.265,0,0,1-6.791-3.814c-5.233-4.537-11.346-10.184-11.683-15.878" transform="translate(-131.902 -225.395)" fill="#8bb5e1"/>
            </g>
          </g>
          <path id="Path_2144" data-name="Path 2144" d="M137.055,308.348l-.235-.028a89.891,89.891,0,0,1,1.6-8.906c1.48-6.353,3.294-10.687,5.4-12.873l.167.162c-2.577,2.682-4.322,8.421-5.334,12.76-1.1,4.706-1.586,8.842-1.591,8.885" transform="translate(-132.278 -272.043)" fill="#182b53"/>
          <path id="Path_2145" data-name="Path 2145" d="M459.715,308.347a89.357,89.357,0,0,0-1.591-8.885c-1.012-4.339-2.758-10.078-5.334-12.76l.167-.162c2.1,2.186,3.915,6.515,5.4,12.873,1.1,4.725,1.591,8.866,1.6,8.906Z" transform="translate(-373.901 -272.043)" fill="#182b53"/>
          <path id="Path_2146" data-name="Path 2146" d="M226.954,360.336s-4.3-2.106-12.224-2.106c0,0-11.951,10.8-24.5,10.8s-23.294-10.8-23.294-10.8-8.666.1-12.191,2.09a33.088,33.088,0,0,0-.584,6.2v.941a16.942,16.942,0,0,0,.167,2.353,16.568,16.568,0,0,0,.821,3.294c1.412,5.927,4.259,18.746,4.941,29.278.941,14.2,20.492,20.706,20.492,20.706s6.522,3.2,9.372,3.2,11.294-3.2,11.294-3.2,19.56-6.5,20.492-20.706a141.569,141.569,0,0,1,2.353-17.572c.567-2.944,1.207-5.883,1.882-8.8.626-2.659,1.5-5.247,1.487-8a42.428,42.428,0,0,0-.515-7.687" transform="translate(-145.538 -326.865)" fill="#8bb5e1"/>
          <g id="Group_10361" data-name="Group 10361" transform="translate(8.615 31.365)" opacity="0.25">
            <g id="Group_10360" data-name="Group 10360" clip-path="url(#clip-path-7)">
              <path id="Path_2147" data-name="Path 2147" d="M154.752,364.832c3.529-1.993,12.191-2.089,12.191-2.089s10.751,10.8,23.295,10.8,24.5-10.8,24.5-10.8c7.927,0,12.224,2.106,12.224,2.106a30.962,30.962,0,0,1,.471,4.452c.038-.424.059-.847.059-1.278a42.64,42.64,0,0,0-.518-7.687s-4.3-2.106-12.224-2.106c0,0-11.951,10.8-24.5,10.8s-23.295-10.8-23.295-10.8-8.666.1-12.191,2.09a33.09,33.09,0,0,0-.584,6.2v.941c0,.5.026.988.068,1.475a33.529,33.529,0,0,1,.515-4.1" transform="translate(-154.168 -358.23)" fill="#0f172b"/>
            </g>
          </g>
          <g id="Group_10363" data-name="Group 10363" transform="translate(21.563 13.153)" opacity="0.19">
            <g id="Group_10362" data-name="Group 10362" clip-path="url(#clip-path-8)">
              <path id="Path_2148" data-name="Path 2148" d="M256.582,299.169a24.485,24.485,0,0,0-47.422.094s10.892,10.555,23.711,10.555c11.1,0,23.711-10.647,23.711-10.647" transform="translate(-209.16 -280.837)" fill="#8bb5e1"/>
            </g>
          </g>
          <path id="Path_2149" data-name="Path 2149" d="M173.36,368.7a25.882,25.882,0,0,1-8.878-1.7,39.763,39.763,0,0,1-7.464-3.722A46.856,46.856,0,0,1,150,357.9a28.256,28.256,0,0,0-12.586,2.306,14.994,14.994,0,0,0-3.986,2.563l-1.092,5.6-.235-.045,1.1-5.666.026-.026A14.651,14.651,0,0,1,137.293,360a27.759,27.759,0,0,1,12.751-2.332h.047l.033.031a45.872,45.872,0,0,0,7.017,5.386c3.9,2.454,9.883,5.379,16.2,5.379,3.5,0,9.25-.941,16.81-5.381a54.29,54.29,0,0,0,7.614-5.386l.033-.028h.042A28.506,28.506,0,0,1,210.593,360a14.65,14.65,0,0,1,4.064,2.628l.026.026,1,5.826-.235.038-.986-5.751a15.154,15.154,0,0,0-3.986-2.56,27.53,27.53,0,0,0-12.588-2.306,54.927,54.927,0,0,1-7.621,5.384,45.29,45.29,0,0,1-7.835,3.722,27.493,27.493,0,0,1-9.061,1.694" transform="translate(-128.669 -326.419)" fill="#182b53"/>
          <g id="Group_10365" data-name="Group 10365" transform="translate(85.305 35.22)" opacity="0.5">
            <g id="Group_10364" data-name="Group 10364" clip-path="url(#clip-path-9)">
              <path id="Path_2150" data-name="Path 2150" d="M480.759,374.61a.689.689,0,1,0,.689.689.706.706,0,0,0-.689-.689" transform="translate(-480.068 -374.61)" fill="#4b4f61"/>
            </g>
          </g>
          <path id="Path_2151" data-name="Path 2151" d="M480.2,374a.689.689,0,1,0,.687.689A.706.706,0,0,0,480.2,374" transform="translate(-394.334 -338.924)" fill="#8bb5e1"/>
          <g id="Group_10367" data-name="Group 10367" transform="translate(85.418 35.243)">
            <g id="Group_10366" data-name="Group 10366" clip-path="url(#clip-path-10)">
              <path id="Path_2152" data-name="Path 2152" d="M480.694,374.78h0a.992.992,0,1,1,.007,0" transform="translate(-480.586 -374.693)" fill="#182b53"/>
            </g>
          </g>
          <g id="Group_10369" data-name="Group 10369" transform="translate(4.33 35.22)" opacity="0.5">
            <g id="Group_10368" data-name="Group 10368" clip-path="url(#clip-path-9)">
              <path id="Path_2153" data-name="Path 2153" d="M136.6,374.61a.689.689,0,1,0,.687.689.706.706,0,0,0-.687-.689" transform="translate(-135.912 -374.61)" fill="#4b4f61"/>
            </g>
          </g>
          <path id="Path_2154" data-name="Path 2154" d="M136.069,374a.689.689,0,1,0,.689.689.706.706,0,0,0-.689-.689" transform="translate(-131.177 -338.924)" fill="#8bb5e1"/>
          <g id="Group_10371" data-name="Group 10371" transform="translate(4.443 35.243)">
            <g id="Group_10370" data-name="Group 10370" clip-path="url(#clip-path-10)">
              <path id="Path_2155" data-name="Path 2155" d="M136.537,374.78h0a.327.327,0,1,0,.558.235h0a.322.322,0,0,0-.548-.235" transform="translate(-136.431 -374.693)" fill="#182b53"/>
            </g>
          </g>
          <path id="Path_2156" data-name="Path 2156" d="M173.609,89.068h-6.16V82.91H163.06v6.158H156.9v4.391h6.16v6.16h4.388v-6.16h6.16Z" transform="translate(-119.979 -63.411)" fill="#ed3327"/>
          <g id="Group_10373" data-name="Group 10373" transform="translate(36.919 19.497)" opacity="0.5">
            <g id="Group_10372" data-name="Group 10372" clip-path="url(#clip-path-13)">
              <rect id="Rectangle_5323" data-name="Rectangle 5323" width="6.16" height="0.762" transform="translate(0.002 6.16)" fill="#182b53"/>
              <rect id="Rectangle_5324" data-name="Rectangle 5324" width="4.388" height="0.762" transform="translate(6.162 0.002)" fill="#182b53"/>
              <rect id="Rectangle_5325" data-name="Rectangle 5325" width="6.16" height="0.762" transform="translate(10.551 6.16)" fill="#182b53"/>
            </g>
          </g>
          <path id="Path_2157" data-name="Path 2157" d="M284.886,324.423h-4.471v-6.167H274.26v-4.471h6.16V307.63h4.471v6.16h6.155v4.471h-6.16Zm-4.388-.078h4.311v-6.167h6.16v-4.311h-6.16v-6.151H280.5v6.16h-6.16v4.311h6.16Z" transform="translate(-237.379 -288.171)" fill="#8e1e1c"/>
          <path id="Path_2158" data-name="Path 2158" d="M346.816,428.827a10.692,10.692,0,0,1,6.266,2.322h0c.151.12.3.235.442.372a14.517,14.517,0,0,0,8.028,3.249l-4.736,7.5a11.6,11.6,0,0,1-11.636,8.922,10.73,10.73,0,0,1-10.28-11.633,11.61,11.61,0,0,1,11.916-10.737" transform="translate(-283.728 -380.838)" fill="#0f172b"/>
          <path id="Path_2159" data-name="Path 2159" d="M333.77,448.945a10.731,10.731,0,0,0,10.28,11.636,11.61,11.61,0,0,0,11.915-10.737,10.73,10.73,0,0,0-10.28-11.633,11.607,11.607,0,0,0-11.916,10.734" transform="translate(-282.863 -388.019)" fill="#fff"/>
          <path id="Path_2160" data-name="Path 2160" d="M185.821,428.594a10.3,10.3,0,0,0-6.068,2.588h0c-.141.127-.278.256-.412.391a13.973,13.973,0,0,1-7.751,3.6l5.339,7.271a12.12,12.12,0,0,0,12.332,8.388,10.292,10.292,0,0,0,9.325-12.071,12.124,12.124,0,0,0-12.758-10.186" transform="translate(-158.867 -380.628)" fill="#0f172b"/>
          <path id="Path_2161" data-name="Path 2161" d="M216.459,448.1a10.3,10.3,0,0,1-9.325,12.073,12.127,12.127,0,0,1-12.76-10.186,10.3,10.3,0,0,1,9.327-12.073A12.124,12.124,0,0,1,216.459,448.1" transform="translate(-176.187 -387.771)" fill="#fff"/>
          <path id="Path_2162" data-name="Path 2162" d="M209.309,466.779a7.636,7.636,0,1,0,7.584-7.419,7.529,7.529,0,0,0-7.584,7.419" transform="translate(-187.711 -404.199)" fill="#182b53"/>
          <path id="Path_2163" data-name="Path 2163" d="M348.86,466.779a7.636,7.636,0,1,0,7.584-7.419,7.53,7.53,0,0,0-7.584,7.419" transform="translate(-294.425 -404.199)" fill="#182b53"/>
          <path id="Path_2164" data-name="Path 2164" d="M225.125,479.973A3.9,3.9,0,1,0,229,476.18a3.849,3.849,0,0,0-3.878,3.793" transform="translate(-199.804 -417.061)" fill="#0f172b"/>
          <path id="Path_2165" data-name="Path 2165" d="M238.159,494.5a1.129,1.129,0,1,0,1.12-1.2,1.176,1.176,0,0,0-1.12,1.2" transform="translate(-209.772 -430.153)" fill="#fff"/>
          <path id="Path_2166" data-name="Path 2166" d="M363.235,479.973a3.9,3.9,0,1,0,3.878-3.793,3.85,3.85,0,0,0-3.878,3.793" transform="translate(-305.417 -417.061)" fill="#0f172b"/>
          <path id="Path_2167" data-name="Path 2167" d="M376.279,494.5a1.129,1.129,0,1,0,1.12-1.2,1.176,1.176,0,0,0-1.12,1.2" transform="translate(-315.393 -430.153)" fill="#fff"/>
          <path id="Path_2168" data-name="Path 2168" d="M281.77,588.19a6.948,6.948,0,0,0,13.252,0,16.431,16.431,0,0,1-13.252,0" transform="translate(-243.122 -502.715)" fill="#f6fbfd"/>
        </g>
      </g>
    </g>
  </g>
</svg>
