<svg xmlns="http://www.w3.org/2000/svg" width="22.12" height="18" viewBox="0 0 22.12 18">
  <path id="Icon_ionic-logo-twitter" data-name="Icon ionic-logo-twitter" d="M23.063,5.133a9.175,9.175,0,0,1-2.606.717,4.554,4.554,0,0,0,2-2.513,9.018,9.018,0,0,1-2.883,1.1,4.537,4.537,0,0,0-7.852,3.1,4.443,4.443,0,0,0,.117,1.036A12.861,12.861,0,0,1,2.48,3.83,4.547,4.547,0,0,0,3.891,9.9a4.433,4.433,0,0,1-2.063-.567v.056A4.542,4.542,0,0,0,5.47,13.837a4.568,4.568,0,0,1-1.2.159,4.281,4.281,0,0,1-.853-.084,4.545,4.545,0,0,0,4.242,3.155,9.1,9.1,0,0,1-5.639,1.945,9.2,9.2,0,0,1-1.083-.066A12.685,12.685,0,0,0,7.889,21,12.836,12.836,0,0,0,20.813,8.072c0-.2,0-.394-.014-.586A9.238,9.238,0,0,0,23.063,5.133Z" transform="translate(-0.942 -3)" fill="#97a0af"/>
</svg>
