<svg xmlns="http://www.w3.org/2000/svg" width="17.995" height="17.995" viewBox="0 0 17.995 17.995">
  <path id="Icon_ionic-logo-linkedin" data-name="Icon ionic-logo-linkedin" d="M19.556,3H4.537A1.468,1.468,0,0,0,3,4.4V19.453A1.583,1.583,0,0,0,4.537,21H19.552A1.5,1.5,0,0,0,21,19.453V4.4A1.38,1.38,0,0,0,19.556,3ZM8.578,18H6V9.984H8.578Zm-1.2-9.234H7.359A1.323,1.323,0,0,1,6,7.383,1.331,1.331,0,0,1,7.392,6,1.328,1.328,0,0,1,8.77,7.383,1.331,1.331,0,0,1,7.378,8.766ZM18,18H15.422V13.617c0-1.05-.375-1.767-1.308-1.767a1.411,1.411,0,0,0-1.322.952,1.736,1.736,0,0,0-.089.633V18H10.125V9.984H12.7V11.1a2.61,2.61,0,0,1,2.325-1.3C16.72,9.8,18,10.913,18,13.317Z" transform="translate(-3 -3)" fill="#97a0af"/>
</svg>
