<svg xmlns="http://www.w3.org/2000/svg" width="79.725" height="66.039" viewBox="0 0 79.725 66.039">
  <g id="kidneys" transform="translate(0 -43.947)">
    <path id="Path_83" data-name="Path 83" d="M140.271,287.442a2.317,2.317,0,0,1-2.317-2.317V266.087a3.61,3.61,0,0,0-2.542-3.46l-8.253-2.585a2.317,2.317,0,0,1,1.385-4.421l8.253,2.585a8.224,8.224,0,0,1,5.79,7.881v19.038A2.317,2.317,0,0,1,140.271,287.442Z" transform="translate(-105.987 -178.624)" fill="#d9ebfe"/>
    <path id="Path_84" data-name="Path 84" d="M136.318,263.058a15.032,15.032,0,0,0-3.618-6.135l-4.156-1.3a2.317,2.317,0,0,0-1.385,4.421l8.253,2.585A3.646,3.646,0,0,1,136.318,263.058Z" transform="translate(-105.987 -178.624)" opacity="0.1"/>
    <path id="Path_85" data-name="Path 85" d="M279.266,287.442a2.317,2.317,0,0,1-2.317-2.317V266.087a8.224,8.224,0,0,1,5.79-7.881l8.253-2.585a2.317,2.317,0,0,1,1.385,4.421l-8.253,2.585a3.61,3.61,0,0,0-2.542,3.46v19.038A2.317,2.317,0,0,1,279.266,287.442Z" transform="translate(-233.824 -178.624)" fill="#d9ebfe"/>
    <path id="Path_86" data-name="Path 86" d="M317.21,263.058a15.032,15.032,0,0,1,3.618-6.135l4.156-1.3a2.317,2.317,0,0,1,1.385,4.421l-8.253,2.585A3.651,3.651,0,0,0,317.21,263.058Z" transform="translate(-267.816 -178.624)" opacity="0.1"/>
    <path id="Path_87" data-name="Path 87" d="M161.667,82.279,152.43,79.05a8.529,8.529,0,0,1-4.6-3.827L145.653,71.4a8.377,8.377,0,0,1-1.1-4.15V53.83a2.359,2.359,0,0,0-2.2-2.379,2.317,2.317,0,0,0-2.428,2.314V67.249a8.377,8.377,0,0,1-1.1,4.15l-2.181,3.824a8.531,8.531,0,0,1-4.6,3.827l-9.174,3.207a2.36,2.36,0,0,0-1.5,2.935,2.315,2.315,0,0,0,2.964,1.46l9.237-3.229a13.163,13.163,0,0,0,7.091-5.9l1.371-2.4a.233.233,0,0,1,.4,0l1.371,2.4a13.164,13.164,0,0,0,7.091,5.905l9.237,3.229a2.316,2.316,0,0,0,1.529-4.374Z" transform="translate(-102.376 -6.333)" fill="#345aa5"/>
    <path id="Path_88" data-name="Path 88" d="M320.877,232.98a1.163,1.163,0,0,0,0-1.73,15.149,15.149,0,0,1-2.826-3.909c.195.085.392.164.594.235l9.174,3.207a2.36,2.36,0,0,1,1.5,2.935,2.315,2.315,0,0,1-2.964,1.46l-5.679-1.985C320.742,233.123,320.807,233.05,320.877,232.98Z" transform="translate(-268.526 -154.837)" opacity="0.1"/>
    <path id="Path_89" data-name="Path 89" d="M129.824,232.839a1.163,1.163,0,0,1,0-1.73,15.149,15.149,0,0,0,2.826-3.909c-.195.085-.392.164-.594.235l-9.174,3.207a2.36,2.36,0,0,0-1.5,2.935,2.315,2.315,0,0,0,2.964,1.46l5.68-1.985C129.959,232.981,129.893,232.909,129.824,232.839Z" transform="translate(-102.386 -154.718)" opacity="0.1"/>
    <path id="Path_90" data-name="Path 90" d="M7.5,132.524c0,6.057,1.633,13.96,7.4,19.731A11.558,11.558,0,0,0,31.25,135.909a4.722,4.722,0,0,1,0-6.771A11.558,11.558,0,0,0,14.9,112.793C9.133,118.564,7.5,126.467,7.5,132.524Z" transform="translate(-6.332 -55.267)" fill="#f28b74"/>
    <path id="Path_91" data-name="Path 91" d="M12.863,146.209C8.738,151.655,7.5,158.323,7.5,163.594c0,6.057,1.633,13.96,7.4,19.731a11.54,11.54,0,0,0,17.306-1.094C16.773,186.638,5.456,163.2,12.863,146.209Z" transform="translate(-6.332 -86.338)" opacity="0.1"/>
    <path id="Path_92" data-name="Path 92" d="M357.372,132.524c0,6.057-1.633,13.96-7.4,19.731a11.558,11.558,0,1,1-16.345-16.345,4.722,4.722,0,0,0,0-6.771,11.558,11.558,0,1,1,16.345-16.345C355.739,118.564,357.372,126.467,357.372,132.524Z" transform="translate(-278.815 -55.267)" fill="#f28b74"/>
    <path id="Path_93" data-name="Path 93" d="M342.146,289.618c-7.16-.519-9.333-8.2-7.926-14.6a5.233,5.233,0,0,1-.6.714,11.558,11.558,0,0,0,16.345,16.345c4.85-4.85,6.777-11.2,7.269-16.705C352.46,286.541,349.63,290.16,342.146,289.618Z" transform="translate(-278.815 -195.089)" opacity="0.1"/>
    <path id="Path_94" data-name="Path 94" d="M76.658,63.289a1.168,1.168,0,1,0-2.1,1.029,29.768,29.768,0,0,1,2.828,12.939c0,4.423-.918,12.76-7.062,18.9A10.392,10.392,0,0,1,53.858,83.834a1.139,1.139,0,0,0,.065-.115,10.434,10.434,0,0,1,1.71-2.251,6.229,6.229,0,0,0,1.013-1.322l.013-.022c.066-.118.129-.237.187-.358a6.457,6.457,0,0,1,2.292,2.558,1.168,1.168,0,0,0,2.079-1.065A8.439,8.439,0,0,0,57.4,77.415c0-.053,0-.105,0-.158a6.019,6.019,0,0,0-.062-.861,8.4,8.4,0,0,0,3.874-3.872,1.168,1.168,0,0,0-2.079-1.064,6.3,6.3,0,0,1-2.6,2.729q-.08-.129-.167-.255c-.014-.02-.028-.04-.043-.059a6.379,6.379,0,0,0-.7-.828A10.39,10.39,0,1,1,70.327,58.352c.5.5.982,1.033,1.433,1.583a1.168,1.168,0,0,0,1.808-1.479c-.5-.61-1.034-1.2-1.589-1.756A12.727,12.727,0,0,0,52.019,72.167l-1.58-.552a7.362,7.362,0,0,1-3.966-3.3l-2.181-3.824a7.221,7.221,0,0,1-.947-3.572V47.5a3.513,3.513,0,0,0-3.318-3.546,3.455,3.455,0,0,0-2.572.959,3.5,3.5,0,0,0-1.079,2.521V60.916a7.223,7.223,0,0,1-.947,3.572l-2.181,3.824a7.363,7.363,0,0,1-3.966,3.3l-1.572.55A12.728,12.728,0,0,0,7.746,56.7C1.006,63.44,0,72.472,0,77.256c0,4.153.78,12.093,6,18.611a1.168,1.168,0,0,0,1.823-1.461c-4.777-5.961-5.491-13.3-5.491-17.15,0-4.423.917-12.76,7.062-18.9A10.39,10.39,0,1,1,24.092,73.045a6.4,6.4,0,0,0-.7.827c-.015.019-.028.039-.042.059q-.088.127-.168.257a6.3,6.3,0,0,1-2.6-2.729,1.168,1.168,0,0,0-2.079,1.065A8.4,8.4,0,0,0,22.382,76.4a6.022,6.022,0,0,0-.062.861c0,.053,0,.106,0,.159a8.436,8.436,0,0,0-3.816,3.844,1.168,1.168,0,1,0,2.079,1.065,6.457,6.457,0,0,1,2.292-2.558c.061.128.127.253.2.377l.027.047a6.24,6.24,0,0,0,.988,1.279,10.432,10.432,0,0,1,1.709,2.25,1.186,1.186,0,0,0,.067.118A10.394,10.394,0,0,1,11.574,97.83a1.168,1.168,0,0,0-1.164,2.025,12.737,12.737,0,0,0,18.5-14.788l.165.052A2.447,2.447,0,0,1,30.8,87.464V106.5a3.484,3.484,0,0,0,6.969,0V87.464a9.387,9.387,0,0,0-6.609-9l-.192-.06.614-.215a14.332,14.332,0,0,0,7.72-6.429l.559-.98.559.979a14.332,14.332,0,0,0,7.721,6.429l.616.215-.19.06a9.387,9.387,0,0,0-6.609,9V106.5a3.484,3.484,0,1,0,6.969,0V87.464a2.447,2.447,0,0,1,1.723-2.345l.165-.052A12.731,12.731,0,0,0,71.978,97.813c6.74-6.74,7.747-15.772,7.747-20.557A32.113,32.113,0,0,0,76.658,63.289ZM35.433,87.464V106.5a1.149,1.149,0,0,1-2.3,0V87.464a4.773,4.773,0,0,0-3.361-4.574l-2.143-.671a12.779,12.779,0,0,0-1.59-2.089l1.232-.431,3.187,1A7.061,7.061,0,0,1,35.433,87.464Zm7.015-16.857-1.371-2.4a1.4,1.4,0,0,0-2.433,0l-1.371,2.4a12,12,0,0,1-6.462,5.381L24.758,78.1a3.588,3.588,0,0,1-.1-.848,3.448,3.448,0,0,1,.434-1.7l4.964-1.735a9.7,9.7,0,0,0,5.225-4.351l2.181-3.824a9.562,9.562,0,0,0,1.254-4.729V47.432a1.149,1.149,0,0,1,1.206-1.147A1.2,1.2,0,0,1,41.009,47.5V60.916a9.561,9.561,0,0,0,1.254,4.729l2.181,3.824a9.7,9.7,0,0,0,5.225,4.351l4.968,1.737a3.448,3.448,0,0,1,.433,1.7,3.589,3.589,0,0,1-.1.849L48.91,75.988A12,12,0,0,1,42.448,70.607Zm7.5,12.283a4.773,4.773,0,0,0-3.36,4.574V106.5a1.149,1.149,0,1,1-2.3,0V87.464A7.061,7.061,0,0,1,49.264,80.7l3.185-1,1.233.431a12.79,12.79,0,0,0-1.589,2.088Z" transform="translate(0 0)"/>
  </g>
</svg>
