<svg id="labs-icon-advanced-search" xmlns="http://www.w3.org/2000/svg" width="39.939" height="36.844" viewBox="0 0 39.939 36.844">
  <g id="Group_11" data-name="Group 11" transform="translate(0 0)">
    <path id="Path_2" data-name="Path 2" d="M38.91,52.092H37.78V30.952h.367a1.793,1.793,0,0,0,0-3.585H34.834V23.9a1.435,1.435,0,0,0,1.253-1.421V21.271a1.435,1.435,0,0,0-1.433-1.433h-7a1.435,1.435,0,0,0-1.433,1.433v1.207A1.435,1.435,0,0,0,27.475,23.9v3.468H23.649V23.9A1.435,1.435,0,0,0,24.9,22.478V21.271a1.435,1.435,0,0,0-1.433-1.433h-7a1.435,1.435,0,0,0-1.433,1.433v1.207A1.435,1.435,0,0,0,16.29,23.9v3.468H12.464V23.9a1.435,1.435,0,0,0,1.253-1.421V21.271a1.435,1.435,0,0,0-1.433-1.433h-7a1.435,1.435,0,0,0-1.433,1.433v1.207A1.435,1.435,0,0,0,5.1,23.9v3.468H1.793a1.793,1.793,0,0,0,0,3.585h.367V52.092H1.029A1.03,1.03,0,0,0,0,53.12v2.533a1.03,1.03,0,0,0,1.029,1.029H38.91a1.03,1.03,0,0,0,1.029-1.029V53.12A1.03,1.03,0,0,0,38.91,52.092ZM27.391,22.478V21.271a.264.264,0,0,1,.264-.264h7a.264.264,0,0,1,.264.264v1.207a.264.264,0,0,1-.264.264h-7A.264.264,0,0,1,27.391,22.478Zm6.273,1.433v3.456h-5.02V23.912ZM16.206,22.478V21.271a.264.264,0,0,1,.264-.264h7a.264.264,0,0,1,.264.264v1.207a.264.264,0,0,1-.264.264h-7A.264.264,0,0,1,16.206,22.478Zm6.273,1.433v3.456h-5.02V23.912ZM5.021,22.478V21.271a.264.264,0,0,1,.264-.264h7a.264.264,0,0,1,.264.264v1.207a.264.264,0,0,1-.264.264h-7A.264.264,0,0,1,5.021,22.478Zm6.273,1.433v3.456H6.274V23.912Zm-9.5,5.871a.623.623,0,0,1,0-1.246H38.146a.623.623,0,0,1,0,1.246H1.793Zm26.852,6.182V30.952h5.02v5.012Zm5.02,1.17V45.88a2.51,2.51,0,1,1-5.02,0V37.134Zm-16.2-1.17V30.952h5.02v5.012Zm5.02,1.17V45.88a2.51,2.51,0,0,1-5.02,0V37.134ZM11.294,30.952v5.012H6.274V30.952Zm27.475,24.56H1.17V53.261H30.282a.585.585,0,0,0,0-1.17H3.329V30.952H5.1v7.483a.585.585,0,0,0,1.17,0v-1.3h5.02V45.88a2.51,2.51,0,1,1-5.02,0V41.2a.585.585,0,0,0-1.17,0V45.88a3.68,3.68,0,1,0,7.359,0V30.952H16.29V45.88a3.68,3.68,0,1,0,7.359,0V30.952h3.826V45.88a3.68,3.68,0,1,0,7.359,0V30.952H36.61V52.091H33.024a.585.585,0,0,0,0,1.17h5.745Z" transform="translate(0 -19.838)" fill="#c1c7d0"/>
  </g>
</svg>
