<svg id="medicine-icon-advanced-search" xmlns="http://www.w3.org/2000/svg" width="25.904" height="39.939" viewBox="0 0 25.904 39.939">
  <g id="Group_27" data-name="Group 27" transform="translate(5.609 2.32)">
    <g id="Group_26" data-name="Group 26">
      <path id="Path_10" data-name="Path 10" d="M162.448,29.742a.585.585,0,0,0-.585.585v1.335a.585.585,0,0,0,1.17,0V30.327A.585.585,0,0,0,162.448,29.742Z" transform="translate(-161.863 -29.742)" fill="#c1c7d0"/>
    </g>
  </g>
  <g id="Group_29" data-name="Group 29" transform="translate(8.988 2.32)">
    <g id="Group_28" data-name="Group 28">
      <path id="Path_11" data-name="Path 11" d="M205.765,29.742a.585.585,0,0,0-.585.585v1.335a.585.585,0,0,0,1.17,0V30.327A.585.585,0,0,0,205.765,29.742Z" transform="translate(-205.18 -29.742)" fill="#c1c7d0"/>
    </g>
  </g>
  <g id="Group_31" data-name="Group 31" transform="translate(12.367 2.32)">
    <g id="Group_30" data-name="Group 30">
      <path id="Path_12" data-name="Path 12" d="M249.083,29.742a.585.585,0,0,0-.585.585v1.335a.585.585,0,0,0,1.17,0V30.327A.585.585,0,0,0,249.083,29.742Z" transform="translate(-248.498 -29.742)" fill="#c1c7d0"/>
    </g>
  </g>
  <g id="Group_33" data-name="Group 33" transform="translate(15.746 2.32)">
    <g id="Group_32" data-name="Group 32">
      <path id="Path_13" data-name="Path 13" d="M292.4,29.742a.585.585,0,0,0-.585.585v1.335a.585.585,0,0,0,1.17,0V30.327A.585.585,0,0,0,292.4,29.742Z" transform="translate(-291.816 -29.742)" fill="#c1c7d0"/>
    </g>
  </g>
  <g id="Group_35" data-name="Group 35" transform="translate(19.125 2.32)">
    <g id="Group_34" data-name="Group 34">
      <path id="Path_14" data-name="Path 14" d="M335.718,29.742a.585.585,0,0,0-.585.585v1.335a.585.585,0,0,0,1.17,0V30.327A.585.585,0,0,0,335.718,29.742Z" transform="translate(-335.133 -29.742)" fill="#c1c7d0"/>
    </g>
  </g>
  <g id="Group_37" data-name="Group 37" transform="translate(6.3 18.703)">
    <g id="Group_36" data-name="Group 36">
      <path id="Path_15" data-name="Path 15" d="M183.19,244.31h-3.711V240.6a.834.834,0,0,0-.833-.833H176.1a.834.834,0,0,0-.833.833v3.711h-3.711a.834.834,0,0,0-.833.833v2.551a.834.834,0,0,0,.833.833h3.711v3.711a.834.834,0,0,0,.833.833h2.551a.834.834,0,0,0,.833-.833v-3.711h3.711a.834.834,0,0,0,.833-.833v-2.551A.834.834,0,0,0,183.19,244.31Zm-.337,3.047h-3.959a.585.585,0,0,0-.585.585V251.9h-1.876v-3.959a.585.585,0,0,0-.585-.585h-3.959V245.48h3.959a.585.585,0,0,0,.585-.585v-3.959h1.876V244.9a.585.585,0,0,0,.585.585h3.959Z" transform="translate(-170.718 -239.766)" fill="#c1c7d0"/>
    </g>
  </g>
  <g id="Group_39" data-name="Group 39" transform="translate(0)">
    <g id="Group_38" data-name="Group 38">
      <path id="Path_16" data-name="Path 16" d="M114.258,11.521,111.4,8.947v-1.8h.5a1.734,1.734,0,0,0,1.732-1.732V1.732A1.734,1.734,0,0,0,111.9,0H93.917a1.734,1.734,0,0,0-1.732,1.732V5.413a1.734,1.734,0,0,0,1.732,1.732h.5v1.8l-2.859,2.574a4.856,4.856,0,0,0-1.6,3.6V36.942a3,3,0,0,0,3,3h19.911a3,3,0,0,0,3-3V15.124A4.856,4.856,0,0,0,114.258,11.521ZM93.917,5.975h0a.562.562,0,0,1-.561-.561V1.732a.562.562,0,0,1,.561-.561H111.9a.562.562,0,0,1,.561.561V5.413a.562.562,0,0,1-.561.561H93.917Zm16.312,1.17V8.622H95.592V7.145Zm4.464,26.665h-3.53a.585.585,0,0,0,0,1.17h3.53v1.961a1.829,1.829,0,0,1-1.827,1.826H92.955a1.829,1.829,0,0,1-1.826-1.826V34.981H108.4a.585.585,0,1,0,0-1.17H91.128V16.524h3.53a.585.585,0,0,0,0-1.17h-3.53v-.23a3.683,3.683,0,0,1,1.217-2.733l2.886-2.6h15.358l2.886,2.6a3.683,3.683,0,0,1,1.217,2.733v.23H97.409a.585.585,0,0,0,0,1.17h17.283Z" transform="translate(-89.958)" fill="#c1c7d0"/>
    </g>
  </g>
</svg>
