<svg xmlns="http://www.w3.org/2000/svg" width="79.725" height="79.727" viewBox="0 0 79.725 79.727">
  <g id="Pediatrics" transform="translate(-0.001 52.647)">
    <circle id="Ellipse_10" data-name="Ellipse 10" cx="7.148" cy="7.148" r="7.148" transform="translate(30.153 -44.156)" fill="#f5d7b7"/>
    <circle id="Ellipse_11" data-name="Ellipse 11" cx="7.148" cy="7.148" r="7.148" transform="translate(30.153 -44.156)" opacity="0.1"/>
    <circle id="Ellipse_12" data-name="Ellipse 12" cx="7.148" cy="7.148" r="7.148" transform="translate(56.941 -17.368)" fill="#f5d7b7"/>
    <circle id="Ellipse_13" data-name="Ellipse 13" cx="7.148" cy="7.148" r="7.148" transform="translate(56.941 -17.368)" opacity="0.1"/>
    <circle id="Ellipse_14" data-name="Ellipse 14" cx="13.768" cy="13.768" r="13.768" transform="translate(1.067 -1.524)" fill="#345aa5"/>
    <path id="Path_71" data-name="Path 71" d="M32.146,332.925A13.769,13.769,0,1,0,8.82,320.989a22.375,22.375,0,0,0,4.809,2.391c1.793.693,3.983,1.413,6.462,2.127.714,2.479,1.434,4.669,2.127,6.462a22.362,22.362,0,0,0,2.39,4.809A13.7,13.7,0,0,0,32.146,332.925Z" transform="translate(-7.574 -310.944)" opacity="0.1"/>
    <ellipse id="Ellipse_15" data-name="Ellipse 15" cx="21.103" cy="20.641" rx="21.103" ry="20.641" transform="translate(20.691 -22.804) rotate(-45)" fill="#f5d7b7"/>
    <g id="Group_66" data-name="Group 66" transform="translate(36.015 -35.703)">
      <ellipse id="Ellipse_16" data-name="Ellipse 16" cx="3.345" cy="4.2" rx="3.345" ry="4.2" transform="translate(0 4.73) rotate(-45)" fill="#f28b74"/>
      <ellipse id="Ellipse_17" data-name="Ellipse 17" cx="3.345" cy="4.2" rx="3.345" ry="4.2" transform="translate(26.769 22.038) rotate(135)" fill="#f28b74"/>
    </g>
    <path id="Path_72" data-name="Path 72" d="M223.036,14.9a21.375,21.375,0,0,0-8.989,5.385A20.876,20.876,0,0,0,213.72,49.8a20.449,20.449,0,0,0,17.245,5.766C217.81,51.2,213.781,29.232,223.036,14.9Z" transform="translate(-178.432 -58.009)" opacity="0.05"/>
    <path id="Path_73" data-name="Path 73" d="M27.992,221.867c8.4.1,27.4,2.1,38.329,7.809a3.8,3.8,0,0,1,1.8,4.71c-1.715,4.569-6.241,11.32-10.383,15.382a10.44,10.44,0,0,1-7.9,2.957c-11.556-.657-37.053-6.526-38.91-10.33-1.887-3.864,4.041-13.8,11.126-18.73A10.174,10.174,0,0,1,27.992,221.867Z" transform="translate(-9.083 -235.753)" fill="#76b7eb"/>
    <path id="Path_74" data-name="Path 74" d="M27.992,221.867c8.4.1,27.4,2.1,38.329,7.809a3.8,3.8,0,0,1,1.8,4.71c-1.715,4.569-6.241,11.32-10.383,15.382a10.44,10.44,0,0,1-7.9,2.957c-11.556-.657-37.053-6.526-38.91-10.33-1.887-3.864,4.041-13.8,11.126-18.73A10.174,10.174,0,0,1,27.992,221.867Z" transform="translate(-9.083 -235.753)" fill="#d9ebfe" opacity="0.1"/>
    <path id="Path_75" data-name="Path 75" d="M60.818,223.667a29.861,29.861,0,0,0-5.107,4.589,168.222,168.222,0,0,0,3.453,17.609c.1.408.206.809.309,1.206,8.895,2.724,21.655,5.206,28.983,5.646q.471-.606.9-1.225a12.961,12.961,0,0,0,2.31-7.6,131.925,131.925,0,0,0-1.948-19.307,127.153,127.153,0,0,0-22.969-2.716A10.174,10.174,0,0,0,60.818,223.667Z" transform="translate(-47.844 -235.754)" opacity="0.1"/>
    <path id="Path_76" data-name="Path 76" d="M102.339,132.522c-.1-8.4-2.1-27.4-7.809-38.329a3.8,3.8,0,0,0-4.71-1.8c-4.569,1.715-11.32,6.241-15.382,10.383a10.44,10.44,0,0,0-2.957,7.9c.657,11.556,6.526,37.053,10.33,38.91,3.864,1.887,13.8-4.04,18.73-11.126A10.174,10.174,0,0,0,102.339,132.522Z" transform="translate(-61.372 -124.35)" fill="#d9ebfe"/>
    <g id="Group_67" data-name="Group 67" transform="translate(15.336 -22.793)" opacity="0.1">
      <path id="Path_77" data-name="Path 77" d="M110.14,287.2a1.059,1.059,0,0,1-1.037-.851c-.088-.438-.5-3.12-.5-3.639a1.059,1.059,0,0,1,2.118-.006c.012.342.353,2.716.456,3.23a1.06,1.06,0,0,1-1.039,1.267Zm.583-4.49h0Z" transform="translate(-108.606 -264.305)"/>
      <path id="Path_78" data-name="Path 78" d="M192.256,163.009a1.061,1.061,0,0,1-1.005-1.4c.076-.227.281-.658.741-1.6.126-.259.246-.5.289-.6a1.059,1.059,0,0,1,1.929.874c-.056.124-.171.358-.316.655-.2.411-.574,1.176-.637,1.347A1.054,1.054,0,0,1,192.256,163.009Z" transform="translate(-179.535 -158.79)"/>
      <path id="Path_79" data-name="Path 79" d="M211.224,309.417a1.054,1.054,0,0,1-.531-.143c-.5-.292-1.905-1.094-2.359-1.3a1.059,1.059,0,0,1,.878-1.927c.631.287,2.35,1.284,2.544,1.4a1.059,1.059,0,0,1-.533,1.975Z" transform="translate(-193.72 -285.172)"/>
      <path id="Path_80" data-name="Path 80" d="M174.627,412.462a1.059,1.059,0,0,1-1.059-1.059c0-.565-.148-2.7-.219-3.724-.023-.331-.04-.581-.047-.69a1.059,1.059,0,0,1,2.114-.126c.006.106.023.348.045.67.108,1.564.224,3.282.224,3.871A1.059,1.059,0,0,1,174.627,412.462Z" transform="translate(-164.166 -370.98)"/>
      <path id="Path_81" data-name="Path 81" d="M320.03,301.969a1.059,1.059,0,0,1-.352-2.058,16.951,16.951,0,0,0,1.924-1.057,5.6,5.6,0,0,1,1.495-.771,1.059,1.059,0,0,1,.523,2.049c-.154.074-.6.341-.93.539a16.137,16.137,0,0,1-2.309,1.237A1.063,1.063,0,0,1,320.03,301.969Zm3.485-1.809h0Z" transform="translate(-289.268 -278.398)"/>
    </g>
    <path id="Path_82" data-name="Path 82" d="M58.291,23.581a3.038,3.038,0,0,0-2.162.9,1.059,1.059,0,1,0,1.5,1.5.94.94,0,1,1,1.33,1.33,1.059,1.059,0,0,0,1.5,1.5,3.058,3.058,0,0,0-2.163-5.22ZM47.817,11.841a3.062,3.062,0,0,0-4.325,0,1.059,1.059,0,1,0,1.5,1.5.94.94,0,1,1,1.33,1.33,1.059,1.059,0,0,0,1.5,1.5A3.061,3.061,0,0,0,47.817,11.841Zm22.719,18.08a22.171,22.171,0,0,0,1.6-8.056A21.337,21.337,0,0,0,66.614,7.184a9.366,9.366,0,0,1,3.819-2.191,1.059,1.059,0,0,0-.591-2.034,11.488,11.488,0,0,0-4.725,2.727A21.357,21.357,0,0,0,50.429.153a22.171,22.171,0,0,0-8.055,1.6A8.157,8.157,0,0,0,37.3,0h-.124A8.208,8.208,0,0,0,30,11.959a4.838,4.838,0,0,0-1.926.3C23.336,14.042,16.411,18.713,12.309,22.9a11.512,11.512,0,0,0-3.258,8.7c.054.948.144,2,.266,3.134a34.538,34.538,0,0,0-6.942,8.982c-1.1,2.1-2.747,6.011-1.478,8.609l.015.031A14.822,14.822,0,0,0,19.941,71.381l.032.016a5,5,0,0,0,2.2.453c2.091,0,4.794-.923,7.769-2.692a35.2,35.2,0,0,0,7.614-6.179c1.138.122,2.192.212,3.139.265q.327.019.653.019A11.51,11.51,0,0,0,49.4,59.986a52.735,52.735,0,0,0,7.206-9.15,1.059,1.059,0,1,0-1.792-1.129,50.548,50.548,0,0,1-6.9,8.766,9.386,9.386,0,0,1-7.1,2.656c-.5-.028-1.027-.067-1.585-.115q.423-.543.8-1.089a11.171,11.171,0,0,0,1.988-6.551,126.693,126.693,0,0,0-1.817-18.382c-.012-.072-.025-.146-.038-.219a64.513,64.513,0,0,1,16.578,5.3,2.75,2.75,0,0,1,1.3,3.4c-.235.626-.532,1.311-.883,2.037a1.059,1.059,0,1,0,1.907.922c.379-.783.7-1.528.959-2.215a4.84,4.84,0,0,0,.3-1.925,8.207,8.207,0,0,0,10.2-12.375ZM33,3.9a6.055,6.055,0,0,1,7.133-1.089,22.8,22.8,0,0,0-8.4,7.853A6.066,6.066,0,0,1,33,3.9ZM5.848,66.446A12.68,12.68,0,0,1,2.6,54.011c1.613,1.038,4.821,2.482,11.376,4.308.779,2.793,1.568,5.244,2.324,7.205a23.023,23.023,0,0,0,1.991,4.168A12.68,12.68,0,0,1,5.848,66.446Zm32.45-7.73a31.772,31.772,0,0,1-9.435,8.622c-3.442,2.047-6.493,2.874-7.961,2.157a.762.762,0,0,1-.1-.064,1.047,1.047,0,0,0-.125-.1c-.869-.8-2.6-4.041-4.8-12.1-.007-.032-.016-.064-.026-.1q-.375-1.376-.768-2.942a1.059,1.059,0,0,0-2.055.514c.1.416.209.825.314,1.23C5.3,53.605,3.369,52.074,2.922,51.562L2.9,51.538a.767.767,0,0,1-.1-.146c-1.128-2.31,1.662-8.751,6.839-14.024.505,3.739,1.282,8.085,2.243,12.475a1.059,1.059,0,0,0,2.069-.453,126.691,126.691,0,0,1-2.786-17.915,9.39,9.39,0,0,1,2.656-7.1c3.918-4,10.506-8.447,15-10.133a2.749,2.749,0,0,1,3.4,1.3c1.671,3.2,3.939,9.686,5.58,17.957a1.05,1.05,0,0,0,.055.28A109.9,109.9,0,0,1,39.908,53.4,9.066,9.066,0,0,1,38.3,58.716Zm20.987-19.23A4.841,4.841,0,0,0,57.728,38.2c-4.45-2.323-10.492-4.228-17.967-5.665-1.085-5.622-2.871-12.616-5.664-17.967a4.844,4.844,0,0,0-1.288-1.558,20.445,20.445,0,0,1,3.555-4.772,19.839,19.839,0,0,1,28.02-.326,19.231,19.231,0,0,1,5.64,13.931A20.052,20.052,0,0,1,68.376,29.6a1.044,1.044,0,0,0-.079.181,20.61,20.61,0,0,1-9.012,9.71Zm9.109-.188a6.066,6.066,0,0,1-6.764,1.269,22.8,22.8,0,0,0,7.853-8.4A6.056,6.056,0,0,1,68.394,39.3ZM51.748,22.417a1.752,1.752,0,0,1-1.87-1.87,1.059,1.059,0,1,0-2.113-.145,3.869,3.869,0,0,0,3.861,4.137q.133,0,.266-.009a1.059,1.059,0,1,0-.145-2.113Z" transform="translate(0 -45.214)"/>
  </g>
</svg>
