<svg xmlns="http://www.w3.org/2000/svg" width="79.719" height="71.612" viewBox="0 0 79.719 71.612">
  <g id="Stomach_and_" data-name="Stomach and " transform="translate(0 -26.036)">
    <path id="Path_62" data-name="Path 62" d="M347.956,59.128a3.437,3.437,0,0,1-2.614-1.2C339.651,51.309,340.8,41,341.285,36.6a3.445,3.445,0,0,1,6.848.761c-.39,3.511-1.3,11.732,2.433,16.078a3.445,3.445,0,0,1-2.611,5.691Z" transform="translate(-287.781 -6.33)" fill="#f28b74"/>
    <path id="Path_63" data-name="Path 63" d="M347.956,59.128a3.437,3.437,0,0,1-2.614-1.2C339.651,51.309,340.8,41,341.285,36.6a3.445,3.445,0,0,1,6.848.761c-.39,3.511-1.3,11.732,2.433,16.078a3.445,3.445,0,0,1-2.611,5.691Z" transform="translate(-287.781 -6.33)" fill="#f28b74"/>
    <path id="Path_64" data-name="Path 64" d="M16.384,301.48a3.434,3.434,0,0,1-2.436-1.009A21.872,21.872,0,0,1,7.5,284.9v-3.32a12.9,12.9,0,0,1,3.851-9.147,12.343,12.343,0,0,1,8.954-3.592A12.562,12.562,0,0,1,32.623,281.4a3.445,3.445,0,0,1-6.89,0,5.7,5.7,0,0,0-5.56-5.671,5.533,5.533,0,0,0-4,1.621,5.965,5.965,0,0,0-1.786,4.229v3.32a15.028,15.028,0,0,0,4.43,10.7,3.445,3.445,0,0,1-2.436,5.881Z" transform="translate(-6.332 -205)" fill="#f28b74"/>
    <path id="Path_65" data-name="Path 65" d="M16.384,301.48a3.434,3.434,0,0,1-2.436-1.009A21.872,21.872,0,0,1,7.5,284.9v-3.32a12.9,12.9,0,0,1,3.851-9.147,12.343,12.343,0,0,1,8.954-3.592A12.562,12.562,0,0,1,32.623,281.4a3.445,3.445,0,0,1-6.89,0,5.7,5.7,0,0,0-5.56-5.671,5.533,5.533,0,0,0-4,1.621,5.965,5.965,0,0,0-1.786,4.229v3.32a15.028,15.028,0,0,0,4.43,10.7,3.445,3.445,0,0,1-2.436,5.881Z" transform="translate(-6.332 -205)" fill="#f28b74"/>
    <path id="Path_66" data-name="Path 66" d="M147.388,144.9a16.605,16.605,0,0,0-16.605,16.605c0,10.047-8.346,14.364-15.513,7.2a8.243,8.243,0,1,0-11.657,11.657c5.5,5.5,13.429,13.249,26.533,13.249,15.983,0,33.847-11.564,33.847-32.1A16.605,16.605,0,0,0,147.388,144.9Z" transform="translate(-85.442 -100.357)" fill="#f28b74"/>
    <g id="Group_65" data-name="Group 65" transform="translate(47.764 58.935)">
      <ellipse id="Ellipse_7" data-name="Ellipse 7" cx="2.764" cy="3.471" rx="2.764" ry="3.471" transform="translate(1.842 13.797) rotate(-109.47)" fill="#d9ebfe"/>
      <ellipse id="Ellipse_8" data-name="Ellipse 8" cx="2.764" cy="3.471" rx="2.764" ry="3.471" transform="translate(24.284 0) rotate(70.53)" fill="#d9ebfe"/>
    </g>
    <ellipse id="Ellipse_9" data-name="Ellipse 9" cx="3.131" cy="2.798" rx="3.131" ry="2.798" transform="translate(58.523 67.716) rotate(-109.47)" fill="#495059"/>
    <path id="Path_67" data-name="Path 67" d="M131.1,304.559c-18.433,0-23.776-14.593-23.121-21.445a8.241,8.241,0,0,0-4.367,13.939c5.5,5.5,13.429,13.249,26.533,13.249,13.137,0,27.543-7.815,32.257-22C157.67,295.357,148.134,304.559,131.1,304.559Z" transform="translate(-85.443 -217.051)" opacity="0.05"/>
    <path id="Path_68" data-name="Path 68" d="M228.279,367.539a3.462,3.462,0,0,0,2.423-2.416c.867-3.31-3.26-7.418-12.14-7.757-6.178-.236-9.506,2.032-10.787,4.371a3.564,3.564,0,0,0,1.794,4.972,25.957,25.957,0,0,0,10.2,2.029A31.286,31.286,0,0,0,228.279,367.539Z" transform="translate(-175.063 -279.727)" fill="#d9ebfe"/>
    <path id="Path_69" data-name="Path 69" d="M216.991,387.354a25.96,25.96,0,0,0,10.2,2.029,31.219,31.219,0,0,0,8.057-1.075,4.75,4.75,0,0,0-3.109-2.986,1.921,1.921,0,0,1-1.158-.959,4.742,4.742,0,0,0-8.338-.159,1.349,1.349,0,0,1-1.472.649,4.73,4.73,0,0,0-5.031,2A3.645,3.645,0,0,0,216.991,387.354Z" transform="translate(-182.486 -300.371)" fill="#345aa5"/>
    <path id="Path_70" data-name="Path 70" d="M67.175,57.31a1.168,1.168,0,0,0-.712,1.49l.5,1.4a1.168,1.168,0,0,0,2.2-.779l-.5-1.4A1.168,1.168,0,0,0,67.175,57.31ZM29,69.171c3.531,3.531,7.775,4.755,11.351,3.274,3.8-1.573,6.155-5.9,6.155-11.3a15.44,15.44,0,0,1,23.966-12.87,1.168,1.168,0,0,0,1.292-1.946,17.692,17.692,0,0,0-9.721-2.955c-1.428-4.143-.829-9.545-.532-12.219a4.613,4.613,0,1,0-9.169-1.019c-.354,3.185-1.069,9.638.769,15.591a17.784,17.784,0,0,0-8.94,15.419c0,4.433-1.806,7.935-4.713,9.139-2.714,1.124-5.923.115-8.806-2.767A9.414,9.414,0,0,0,21.526,65.1,13.618,13.618,0,0,0,4.2,66.6,14.067,14.067,0,0,0,0,76.582V79.9A23.031,23.031,0,0,0,6.791,96.3a4.613,4.613,0,1,0,6.523-6.523A13.868,13.868,0,0,1,9.226,79.9v-3.32a4.791,4.791,0,0,1,1.436-3.4,4.336,4.336,0,0,1,4.178-1.148,9.411,9.411,0,0,0,2.506,8.789c1.245,1.245,2.478,2.467,3.867,3.723a1.168,1.168,0,1,0,1.566-1.733C21.429,81.6,20.22,80.4,19,79.176A7.075,7.075,0,1,1,29,69.171ZM54.666,30.4a2.277,2.277,0,1,1,4.526.5c-.3,2.725-.9,8.1.449,12.625a17.621,17.621,0,0,0-4.4,1.166C53.678,39.293,54.337,33.357,54.666,30.4ZM17.345,67.52a9.376,9.376,0,0,0-1.7,2.32,6.671,6.671,0,0,0-6.621,1.68A7.14,7.14,0,0,0,6.89,76.583V79.9a16.188,16.188,0,0,0,4.773,11.522,2.277,2.277,0,1,1-3.22,3.22A20.713,20.713,0,0,1,2.336,79.9v-3.32a11.721,11.721,0,0,1,3.5-8.314,11.2,11.2,0,0,1,8.114-3.258,11.314,11.314,0,0,1,4.968,1.244A9.406,9.406,0,0,0,17.345,67.52ZM76.057,50.342A1.168,1.168,0,1,0,74.2,51.763a15.294,15.294,0,0,1,3.18,9.386A29.047,29.047,0,0,1,66.868,84.01,34.856,34.856,0,0,1,44.7,92.084a29.64,29.64,0,0,1-17.78-5.9,1.168,1.168,0,0,0-1.361,1.9A31.9,31.9,0,0,0,44.7,94.419a37.227,37.227,0,0,0,23.67-8.625,31.78,31.78,0,0,0,8.186-10.456,32.259,32.259,0,0,0,3.158-14.19A17.61,17.61,0,0,0,76.057,50.342ZM56.768,85.692a5.183,5.183,0,0,0-1.006-4.433c-2.1-2.826-6.55-4.57-12.219-4.787-8.072-.306-10.98,3.378-11.856,4.977a4.661,4.661,0,0,0-.306,3.769,4.806,4.806,0,0,0,2.672,2.84A27.314,27.314,0,0,0,44.7,90.179a32.387,32.387,0,0,0,8.83-1.243h0A4.636,4.636,0,0,0,56.768,85.692ZM54.509,85.1A2.292,2.292,0,0,1,52.9,86.689h0A30.047,30.047,0,0,1,44.7,87.844a24.652,24.652,0,0,1-9.746-1.938,2.467,2.467,0,0,1-1.373-1.457,2.292,2.292,0,0,1,.15-1.878c1.846-3.37,6.778-3.778,9.047-3.778.263,0,.49.005.672.012,4.885.187,8.785,1.624,10.433,3.844A2.92,2.92,0,0,1,54.509,85.1ZM58.43,67.6a3.911,3.911,0,0,0,1.884.5,3.709,3.709,0,0,0,1.238-.213A3.792,3.792,0,0,0,63.8,65.7a4.568,4.568,0,0,0-1.995-5.642,3.792,3.792,0,0,0-3.122-.282,4.147,4.147,0,0,0-2.306,5.375A4.474,4.474,0,0,0,58.43,67.6Zm1.035-5.622a1.36,1.36,0,0,1,.455-.077,1.592,1.592,0,0,1,.765.206,2.235,2.235,0,0,1,.957,2.708,1.427,1.427,0,0,1-2.089.738,2.142,2.142,0,0,1-.971-1.18A1.823,1.823,0,0,1,59.465,61.981Zm-8.046,4.886a1.169,1.169,0,0,0,1.1-1.557l-.5-1.4a1.168,1.168,0,1,0-2.2.779l.5,1.4A1.168,1.168,0,0,0,51.419,66.867Z" transform="translate(0 0)"/>
  </g>
</svg>
